<svg version="1.1" xmlns="http://www.w3.org/2000/svg" xmlns:xlink="http://www.w3.org/1999/xlink" x="0px" y="0px"
	 viewBox="0 0 500 500" enable-background="new 0 0 500 500" xml:space="preserve">
<g id="background">
	<rect fill="#009444" width="498.9" height="500"/>
	<circle cx="245.3" cy="408.6" r="319.5"/>
</g>
<g id="backgroundleaves">
	<g>
		<path fill="#4F723F" d="M273.7,20.5c0.2,0.1,1.7,5.8,3.5,12.9c14.2,58.5,35.5,105.1,66.2,144.8c3.6,5,6.3,9.2,5.8,9.3
			c-0.4,0.1-3.9-3.9-7.6-8.9c-30.9-39.7-51.5-86.4-65.3-145.3C274.5,26.2,273.5,20.4,273.7,20.5z"/>
		<path fill="#4F723F" d="M259.3,8.4c12.1,13.1,13.7,13.5,14.1,12.7c0.5-0.8-0.3-2.5-12.9-16.1c-12.7-13.6-22-23.2-22-22.6
			C238.5-17,247.3-4.7,259.3,8.4z"/>
		<path fill="#4F723F" d="M261.2,18.9c13.2,14.4,14.9,14.8,15.3,13.9c0.5-0.9-0.3-2.8-14.1-17.6c-13.8-14.9-23.8-25.4-23.8-24.7
			C238.6-8.9,248.1,4.5,261.2,18.9z"/>
		<path fill="#4F723F" d="M259.8,25.5c15.9,13.4,18,14,18.2,13c0.4-0.9-1.2-2.9-17.8-17c-16.5-14.1-26.9-22.7-26.8-22
			C233.6,0.3,244,12.2,259.8,25.5z"/>
		<path fill="#4F723F" d="M261,34.3c16.8,12,18.9,12.4,19,11.3c0.4-0.9-1.4-2.9-18.9-15.5c-17.3-12.6-28-19.7-27.9-18.9
			C233.4,11.9,244.4,22.4,261,34.3z"/>
		<path fill="#4F723F" d="M261.6,42.4c17.7,10.1,19.8,10.3,19.7,9.2c0.2-1-1.8-2.9-20-13.5c-18.2-10.6-29.2-15.9-29-15.1
			C232.5,23.6,244.1,32.3,261.6,42.4z"/>
		<path fill="#4F723F" d="M262.5,61.8c21.7,8.5,24.5,8.6,24.5,6.9c0.4-1.4-2.3-4-24.3-12.9c-21.7-8.7-34.4-10.1-34.4-9.2
			C228.4,47.6,241.2,53.5,262.5,61.8z"/>
		<path fill="#4F723F" d="M262.3,51.5c18.8,7.6,21.3,7.8,21.2,6.6c0.3-1-2.1-3.1-21.2-10.9c-18.8-7.7-29.9-9.7-29.9-9
			C232.5,38.7,243.8,44.1,262.3,51.5z"/>
		<path fill="#4F723F" d="M264.5,72.2c22.1,7.3,24.9,7.3,24.7,5.6c0.3-1.4-2.4-3.9-24.8-11.5c-22.1-7.4-35.3-7.9-35.3-7
			C229.1,60.1,242.7,65.1,264.5,72.2z"/>
		<path fill="#4F723F" d="M271.9,104.5c25.6,3.6,28.2,3,27.9,1.1c0-1.6-2.9-3.9-28.4-7.3c-25.3-3.2-41.9-0.6-42,0
			C229.5,99.1,246.5,101,271.9,104.5z"/>
		<path fill="#4F723F" d="M268.5,91.7c25,4.3,27.8,4,27.6,2.4c0.2-1.4-2.8-3.5-27.7-7.8c-24.7-4-40.4-1.9-40.5-1.3
			C227.9,85.7,243.7,87.6,268.5,91.7z"/>
		<path fill="#4F723F" d="M264.1,81.6c24.7,4,27.7,3.8,27.4,2.1c0.2-1.3-2.9-3.6-27.5-7.6c-24.3-3.8-39.4-1.1-39.5-0.5
			C224.6,76.4,239.7,77.8,264.1,81.6z"/>
		<path fill="#4F723F" d="M275,115.1c27.1,2.5,29.5,1.7,29.3,0.1c0-1.4-2.7-3.1-29.5-5.2c-26.7-2-45.5,0.4-45.6,1
			C229.1,111.5,248,112.6,275,115.1z"/>
		<path fill="#4F723F" d="M278.7,122.8c27.1,3,29.4,2.1,29.2,0.6c-0.1-1.5-2.6-3.1-29.5-5.6c-26.8-2.4-46-0.8-46.1-0.3
			C232.2,118,251.6,119.8,278.7,122.8z"/>
		<path fill="#4F723F" d="M285.9,140.1c30.1,4.5,32.2,3.4,32.2,1.8c-0.1-1.7-2.4-3.2-32.2-7c-29.8-3.7-52.5-3.8-52.7-3.3
			C233,131.9,255.5,135.3,285.9,140.1z"/>
		<path fill="#4F723F" d="M280.8,131.5c30.3,3.8,32.6,2.8,32.6,1.1c0-1.6-2.5-3.3-32.4-6.4c-29.9-3-52-1.9-52.2-1.4
			C228.5,125.2,250.4,127.6,280.8,131.5z"/>
		<path fill="#4F723F" d="M298.9,163.8c33.5,5.7,34.5,3.1,34.4,1.3c-0.7-2.4-2.5-3.4-35.5-7.4c-33.4-4.3-60.9-8.2-60.9-7.9
			C236.4,149.9,264.6,157.4,298.9,163.8z"/>
		<path fill="#4F723F" d="M310.9,178.7c29.6,2.9,30-1.2,29.6-2.8c-1-2.7-2.8-2.3-32.3-3.4c-29.9-1.6-54.8-8.7-54.5-8.5
			C253.7,163.8,280.6,174.6,310.9,178.7z"/>
		<path fill="#4F723F" d="M322.1,192.3c25.8-0.2,25.8-6.4,25.1-7.6c-1.2-3.1-3.1-0.8-29.2,1.2c-26.5,1.1-48.2-11-47.6-10.9
			C270.7,174.8,295.8,190.8,322.1,192.3z"/>
		<path fill="#4F723F" d="M288.8,152c34.8,5.6,36.4,3.6,36.3,1.6c-0.5-2.3-2.7-3.8-36.9-7.8c-34.4-4.1-61.9-5.6-62-5.3
			C225.9,140.6,253.4,145.9,288.8,152z"/>
		<path fill="#4F723F" d="M267.8,3.9c5.1,15.1,4.4,16.3,3.3,15.9c-1.2-0.3-2.4-2-7.6-17.7c-5.3-15.7-8.9-26.4-8.3-26
			C255.8-23.5,262.7-11.1,267.8,3.9z"/>
		<path fill="#4F723F" d="M275.3,15.3c3.3,16.6,2.3,17.8,1.2,17.3c-1.3-0.4-2.3-2.4-5.7-19.6c-3.5-17.2-5.7-28.3-5.1-27.8
			C266.4-14.4,272-1.2,275.3,15.3z"/>
		<path fill="#4F723F" d="M259-5.7c9.4,17.8,9.3,19.6,8.3,19.4c-1.1,0-2.7-1.9-12.3-20.6c-9.7-18.6-16.1-31.5-15.5-31.1
			C240-37.6,249.6-23.3,259-5.7z"/>
		<path fill="#4F723F" d="M281.7,26.6c0.4,17.7-0.6,19.3-1.6,18.6c-1.1-0.4-1.8-2.9-2.4-21.3c-0.7-18.3-0.6-28.7,0-28.2
			C278.3-3.7,281.2,9.2,281.7,26.6z"/>
		<path fill="#4F723F" d="M285.9,33.2c-1.9,17.2-3.1,18.7-4.1,17.9c-1.1-0.5-1.6-3,0.3-20.9c1.8-17.7,3.9-27.4,4.4-26.8
			C287,4,287.8,16.3,285.9,33.2z"/>
		<path fill="#4F723F" d="M294.9,48c-6,19-7.8,20.9-9.3,19.7c-1.6-0.6-2.2-4,3.7-23.5c5.8-19.1,12.5-27.8,13.3-27.2
			C303.4,17.7,301,29.4,294.9,48z"/>
		<path fill="#4F723F" d="M290.2,40.2c-5.1,16.4-6.5,18.2-7.6,17.3c-1.1-0.4-1.5-3.4,3.5-20.2c4.9-16.5,10.1-24.3,10.7-23.9
			C297.4,14,295.3,24.2,290.2,40.2z"/>
		<path fill="#4F723F" d="M300.3,58.1c-7.4,18.6-9.3,20.3-10.7,19.1c-1.5-0.7-2-4.1,5.3-23.1c7.3-18.7,15.2-27.3,15.9-26.8
			C311.5,28,307.7,39.8,300.3,58.1z"/>
		<path fill="#4F723F" d="M317.6,87.7c-13.2,18.2-15.5,19.4-17.1,18c-1.5-1.1-1.7-4.2,11.6-22.3c13.3-18,26.4-26.8,27.1-26.3
			C339.9,57.6,330.8,69.6,317.6,87.7z"/>
		<path fill="#4F723F" d="M311.5,75.1c-12.2,18.5-14.2,20-15.6,18.8c-1.4-0.8-1.5-4,10.7-22.4c12.2-18.2,24.1-26.7,24.7-26.3
			C331.9,45.7,323.7,56.9,311.5,75.1z"/>
		<path fill="#4F723F" d="M307.5,66c-12.2,18.2-14.3,19.9-15.7,18.7c-1.4-0.7-1.5-4.1,10.7-22.3c12.1-17.9,24-25.7,24.7-25.3
			C327.9,37.6,319.7,48.1,307.5,66z"/>
		<path fill="#4F723F" d="M324.3,96.5c-15.4,18.2-17.7,19.2-19.1,18c-1.4-1-1.2-3.6,14.3-21.5c15.5-17.8,30.1-27.7,30.7-27.4
			C350.8,65.8,339.7,78.2,324.3,96.5z"/>
		<path fill="#4F723F" d="M327.4,105.3c-15,18.3-17.3,19-18.7,18c-1.4-1-1.2-3.5,14-21.5c15.3-17.9,29.5-28.7,30.1-28.3
			C353.4,73.7,342.4,86.8,327.4,105.3z"/>
		<path fill="#4F723F" d="M338.2,121.7c-15.8,20.8-18.2,21.1-19.8,20c-1.5-1.2-1.6-3.4,14.7-23.5c16.3-20.3,31.7-33.8,32.2-33.5
			C365.8,84.7,354,100.5,338.2,121.7z"/>
		<path fill="#4F723F" d="M333.1,112.2c-16.5,20.6-19,21.1-20.6,20c-1.6-1.1-1.5-3.6,15.3-23.5c16.9-20,32.8-32.6,33.5-32.3
			C361.9,76.5,349.6,91.3,333.1,112.2z"/>
		<path fill="#4F723F" d="M356.2,144c-17.3,23.8-20.1,22.6-21.9,21.4c-1.8-2-1.8-3.7,16.6-26.1c18.5-22.9,34.5-41.6,34.9-41.4
			C386.3,97.7,373.4,119.2,356.2,144z"/>
		<path fill="#4F723F" d="M362.4,156.2c-16.3,23-19.2,21.1-20.8,19.8c-1.7-2.2-1.4-3.4,16.2-24.9c17.7-22.1,31.3-42.3,31.5-42.1
			C389.5,108.9,378.5,132.1,362.4,156.2z"/>
		<path fill="#4F723F" d="M369.2,167.5c-16.8,21.4-20.9,18.1-22,17c-1.8-2.6-0.2-2.7,18.3-22.7c18.3-20.8,27.8-43.9,27.7-43.7
			C393,117.9,385.3,144.6,369.2,167.5z"/>
		<path fill="#4F723F" d="M349,131.3c-18.2,24.2-21,23.6-22.9,22.3c-1.8-1.8-2-4,17.1-26.9c19.2-23.2,37.1-40.1,37.5-39.9
			C381.3,86.7,367.2,106.3,349,131.3z"/>
	</g>
	<path fill="#084829" d="M373.8,66.7c1.6-23.2,5.3-44.4,15.4-60.7c2.8-4.6,6-8.8,9.4-12.7L458.6,22c0,0,0.1-0.1,0.1-0.1
		c-8.7-4.6-32.1-17.8-54-35.4C415-24,456-42.6,462.2-49.2c0.9-0.9,2.4-1,3.3-0.2c9.6,8.7,17.6,19.4,26.3,29.1c1.8,2,5-0.1,4-2.6
		c-3.5-7.9-7.1-16-12.1-23.7c-1-1.5,0-3.4,1.7-3.6c15.6-2.1,28-9,37.7-17.4c1.2-1,3-0.6,3.7,0.7c4.9,9.6,5.7,12.8,11.9,21.1
		c1.4,1.8,4.3,0.9,4.3-1.4c0-8.7-1.6-15.5,1.8-22.9c3.4-7.5,27.9-3.7,39.8-1.7c1.6,0.3,2.5,2.1,1.7,3.5c-1,1.7-2.1,3.5-3.4,5.4
		c-0.4,0.5-0.5,1.1-0.4,1.7c2.4,14.8,5.4,37.9,0,42c-6.2,4.7-12.2,3.2-19.9,4c-2.1,0.2-2.9,2.8-1.3,4.2c8.4,7.4,11,7.8,20,13.1
		c1.1,0.7,1.5,2.1,0.9,3.2c-6.6,12-11.9,26.9-12.7,45c-0.1,1.9-2.2,2.9-3.8,1.8c-6.6-4.6-13.4-7.8-20.2-10.9
		c-2.4-1.1-4.5,1.9-2.7,3.8c9.2,9.4,19.3,17.6,27.5,28c0.6,0.8,0.7,1.9,0.1,2.8c-5.2,7.7-31,41.6-39,54.1
		c-16.2-21.5-29.2-45.5-34.1-55.1c0,0-0.1,0.1-0.1,0.1l29.1,62.4c-3,4.1-6.3,8.1-10,11.7c-12.9,13-30.6,19.8-50.3,24.7
		c-3.1-27.2-6.1-50.7-6.9-55.9c0,0-0.1,0.1-0.1,0.1c0,0.3,0.1,0.7,0.1,1.2c1,8.2-1.3,30.9-4.6,57.3c-29.1,6.2-57.8-12.4-86.5,1.8
		c-1.8-4.3-1.7-10.9,0.1-18.9c0,0-0.1,0-0.1,0c8.5-32.6,3.7-46.1,5.1-79.4c21.6-6,40.2-10.5,48.7-11c0.1-0.1,0.1-0.2,0.2-0.3
		C414.1,68.3,395.3,67.4,373.8,66.7z"/>
	<g>
		<g>
			<g>
				<path fill="#293A21" d="M197.8-18.1c0.1,0.2-4,3.2-8.8,7.2c-44.2,38.3-79.9,97.2-104.6,196.4c-3.6,14.3-7,26.3-8,25.6
					c-1-0.7,1-13.9,4.7-28.2c25.8-98.8,62.6-157,107.4-194.8C193.3-15.8,197.7-18.4,197.8-18.1z"/>
			</g>
		</g>
		<path fill="#293A21" d="M146-17.9c9,29.8,12.2,32.3,15.5,31.4c3.2-0.6,5.1-4.3-3.7-33.6c-8.4-27.8-20.7-47.2-22.4-47.1
			C133.8-67,137.4-46.2,146-17.9z"/>
		<path fill="#293A21" d="M120.6,1.5c16.7,33.7,20.5,35.8,24,33.7c3.3-1.8,4.9-6.9-11.4-39.3c-15.9-31.3-35.8-52.4-37.6-52
			C93.9-55.7,104.3-31.1,120.6,1.5z"/>
		<path fill="#293A21" d="M96.3,28.2c22.1,37.6,26.5,39.2,30.1,36c3.4-2.7,4.7-8.9-16.9-44.5C88.2-14.9,62.9-38.1,61-37.5
			C59.2-36.8,74.4-8.5,96.3,28.2z"/>
		<path fill="#293A21" d="M70.6,61.4c25.8,46.9,30.9,48.7,35.1,44.6c3.9-3.5,5.5-11.2-19.8-54.9C61.1,8.7,31.5-19.7,29.3-19.2
			C27.1-18.5,45.4,15.9,70.6,61.4z"/>
		<path fill="#293A21" d="M43.6,102.2c33.1,60.3,39.1,61.3,44,55.2c4.5-5.5,6-15.5-26.7-70.3c-32-53.1-70.1-89.6-72.6-89
			C-14-1.2,11.5,43.7,43.6,102.2z"/>
		<path fill="#293A21" d="M204.5,7.9C181.1,5,179,1.3,178.8-2.6c-0.1-4,1.7-6.5,24.9-3.7c21.5,2.5,38.1,9.1,38.3,11
			C242.2,6.6,226.3,10.5,204.5,7.9z"/>
		<path fill="#293A21" d="M190.6,28.8c-25.1-7-26.9-11.2-26.7-15.3c0.3-4.1,2.5-6.5,27.1,0.3c23,6.3,40.9,16.3,41,18.3
			C232.1,34.2,214,35.4,190.6,28.8z"/>
		<path fill="#293A21" d="M177.5,54.3c-29.7-6.8-31.8-12-31.7-16.8c0.2-5,2.7-7.8,31.7-1.2c26.8,6,48.1,16.2,48.3,18.6
			C226,57.2,205,60.4,177.5,54.3z"/>
		<path fill="#293A21" d="M160.9,91.8c-33.1-14.4-34.9-20.9-34-26.3c1-5.6,4.3-8.1,36.5,5.8c30.1,12.7,54.1,28.7,54.1,31.5
			C217.3,105.4,191.9,105.1,160.9,91.8z"/>
		<path fill="#293A21" d="M147.7,133.3c-39.3-12.3-41.4-20.8-40.7-27.5c0.9-7.2,4.3-10.3,42.4,1.9c35,10.7,63.3,24.4,63.4,27.7
			C212.8,138.4,183.9,144,147.7,133.3z"/>
		<path fill="#293A21" d="M138.5,195.6c-47.9-15.2-49.8-27.6-48.9-36.2c1.4-9.8,5.4-13,51.5,2.2c42.1,13.1,76.1,26.8,76.1,30.9
			C217.2,196.1,182.3,208.1,138.5,195.6z"/>
	</g>
	<g opacity="0.49">
		<path fill-rule="evenodd" clip-rule="evenodd" fill="#1D1D1B" d="M117,12.6c20.2-14.2,31-8.2,58.2-1.6c-0.8,0.7-1.6,1.4-2.3,2.1
			c1.6-0.5,3.2-0.6,4.9-0.4c-0.4,0.4-0.7,0.9-0.7,1.5c1.7-0.6,4.7-0.2,5.9,0.4c-0.5,0.5-1.1,1-1.6,1.4c2-0.1,4,0.3,5.9,1
			c-0.4,0.8-0.7,1.7-1.1,2.5c1.6-0.3,3.4-0.1,5.2,0.4c-0.7,0.5-1.2,1-1.7,1.6c1.9-0.1,3.5,0.8,5.1,2c-0.3,0.4-0.6,0.8-0.9,1.2
			c3.2,0.8,5.2,2.2,7.2,3.6c-2.1,0.4-4.5,1.3-6.9,1.4c0.4,0.8,0.9,1.5,1.3,2.3c-2.5,0-4.8-0.9-7.2-1.7c0.7,0.8,1.4,1.6,2.1,2.3
			c-1.9,0-3.6-0.4-6.1-1.3c0.8,1.1,1.6,2.3,2.4,3.4c-3.2-0.9-5-1.3-7.5-2.8c0.4,1,0.8,2,1.1,3c-2.8-0.3-4.3-0.1-7.8-2
			c0.4,0.8,0.8,1.7,1.2,2.5c-1.8-0.2-3.6-1.1-5.3-2.2c0.4,1.1,0.8,2.2,1.3,3.3c-19-0.9-46.5-2.9-54.3-23
			C115.9,13.3,116.5,12.9,117,12.6L117,12.6z"/>
		<path fill-rule="evenodd" clip-rule="evenodd" fill="#1D1D1B" d="M100.6,38.4c8.4,23.4,20.8,24.7,47.1,35c-0.2-1-0.5-2-0.7-3
			c1,1.3,2.3,2.4,3.8,3.2c0-0.6,0-1.2,0.3-1.7c1.1,1.5,3.8,2.9,5.1,3c-0.2-0.7-0.3-1.4-0.5-2.1c1.6,1.2,3.4,2.1,5.4,2.5
			c0.2-0.9,0.4-1.8,0.5-2.7c1.1,1.2,2.7,2,4.5,2.7c-0.3-0.8-0.4-1.5-0.5-2.3c1.5,1.2,3.3,1.4,5.4,1.3c0-0.5,0-1,0-1.5
			c3.1,1.2,5.6,1.2,8,1.2c-1.5-1.6-3-3.7-4.9-5.2c0.8-0.4,1.6-0.7,2.4-1.1c-2.1-1.5-4.5-2.1-6.9-2.7c1-0.2,2-0.5,3-0.7
			c-1.6-1.1-3.2-1.8-5.7-2.5c1.3-0.5,2.6-0.9,4-1.4c-3.1-1.1-4.8-1.8-7.8-2c0.9-0.6,1.8-1.2,2.7-1.8c-2.5-1.4-3.6-2.4-7.6-2.9
			c0.8-0.5,1.6-0.9,2.5-1.3c-1.7-0.9-3.6-1.2-5.7-1.2c1-0.7,2-1.3,3-2c-16.2-10.3-40-24.5-58.1-12.5
			C100.1,37.2,100.3,37.8,100.6,38.4L100.6,38.4z"/>
		<path fill-rule="evenodd" clip-rule="evenodd" fill="#1D1D1B" d="M97.1,35.9c-21.8-5.1-26-20.5-38-43C60.1-7,61-6.9,62-6.8
			c-1.3-0.8-2.4-1.8-3.2-3.1c0.5,0,1.1-0.1,1.5-0.4c-1.4-0.8-3-3.1-3.3-4.3c0.7,0.1,1.3,0.2,2,0.2c-1.3-1.3-2.2-2.9-2.9-4.6
			c0.8-0.3,1.6-0.5,2.4-0.8c-1.2-0.9-2.1-2.2-2.9-3.8c0.7,0.2,1.4,0.2,2.1,0.2c-1.2-1.2-1.6-2.8-1.7-4.7c0.4,0,0.9-0.1,1.3-0.1
			c-1.4-2.7-1.7-4.9-1.9-7.1c1.6,1.2,3.6,2.3,5.1,3.9c0.2-0.8,0.5-1.5,0.8-2.3c1.5,1.7,2.3,3.8,3.2,5.9c0.1-0.9,0.2-1.9,0.3-2.8
			c1.2,1.3,2,2.7,2.8,4.9c0.3-1.2,0.6-2.5,0.8-3.7c1.3,2.7,2.1,4.2,2.6,6.8c0.4-0.9,0.9-1.7,1.4-2.6c1.5,2.1,2.5,2.9,3.4,6.5
			c0.3-0.8,0.6-1.6,1-2.3c0.9,1.4,1.4,3.1,1.7,4.9c0.5-0.9,1-1.9,1.5-2.9C90.8-5.4,107.7,19,98.8,36.4
			C98.2,36.3,97.7,36.1,97.1,35.9L97.1,35.9z"/>
		<path fill-rule="evenodd" clip-rule="evenodd" fill="#1D1D1B" d="M83.6,59.4c19.2-4.5,25.4,3.2,43.6,16.2
			c-0.8,0.3-1.6,0.6-2.3,0.8c1.3,0.1,2.6,0.5,3.7,1.1c-0.4,0.2-0.8,0.5-1,0.9c1.4,0.1,3.6,1.3,4.2,2.1c-0.5,0.2-1.1,0.4-1.6,0.6
			c1.5,0.5,2.8,1.4,4,2.5c-0.5,0.5-1,1-1.6,1.5c1.3,0.2,2.5,0.9,3.8,1.8c-0.6,0.1-1.2,0.4-1.7,0.7c1.4,0.5,2.4,1.6,3.2,3
			c-0.3,0.2-0.7,0.4-1,0.6c2.1,1.6,3.2,3.2,4.2,4.8c-1.7-0.3-3.7-0.4-5.5-1c0.1,0.7,0.2,1.4,0.3,2.1c-1.9-0.8-3.3-2.1-4.8-3.4
			c0.3,0.8,0.6,1.6,0.8,2.3c-1.5-0.6-2.6-1.4-4.1-2.8c0.3,1.1,0.5,2.2,0.8,3.2c-2.1-1.6-3.3-2.4-4.7-4.3c0,0.9,0,1.7-0.1,2.6
			c-2-1-3.2-1.3-5.2-3.8c0.1,0.7,0.1,1.5,0.2,2.2c-1.3-0.7-2.3-1.9-3.2-3.2c0,0.9,0,1.9-0.1,2.8c-13.8-6.3-33.6-16-33.4-33.3
			C82.7,59.6,83.2,59.5,83.6,59.4L83.6,59.4z"/>
		<path fill-rule="evenodd" clip-rule="evenodd" fill="#1D1D1B" d="M82.7,56.9c2.5-19.6-5.7-25-20.6-41.8c-0.2,0.8-0.4,1.6-0.6,2.4
			c-0.3-1.3-0.8-2.5-1.5-3.6c-0.2,0.4-0.4,0.8-0.8,1.1c-0.2-1.4-1.7-3.4-2.5-4c-0.1,0.6-0.3,1.1-0.4,1.7c-0.7-1.5-1.7-2.7-2.9-3.8
			c-0.4,0.6-0.9,1.1-1.4,1.7c-0.4-1.2-1.2-2.4-2.2-3.6c-0.1,0.6-0.2,1.2-0.5,1.8c-0.6-1.3-1.9-2.2-3.3-2.8c-0.2,0.4-0.3,0.7-0.5,1.1
			c-1.8-1.9-3.5-2.9-5.2-3.7C40.7,5,41,7,41.8,8.8c-0.7,0-1.4-0.1-2.1-0.1c0.9,1.8,2.4,3.1,3.9,4.4c-0.8-0.2-1.6-0.4-2.4-0.6
			c0.7,1.4,1.6,2.4,3.2,3.8c-1.1-0.2-2.2-0.3-3.3-0.5c1.8,1.9,2.8,3,4.8,4.2c-0.8,0.1-1.7,0.2-2.6,0.3c1.2,1.9,1.6,3,4.3,4.8
			c-0.7,0-1.5,0-2.2,0.1c0.9,1.2,2.1,2.1,3.6,2.9c-0.9,0.1-1.9,0.2-2.8,0.3c7.7,13.1,19.4,31.8,36.5,29.8
			C82.6,57.9,82.7,57.4,82.7,56.9L82.7,56.9z"/>
		<path fill-rule="evenodd" clip-rule="evenodd" fill="#1D1D1B" d="M64.4,80.7c2.8,13.5,9.4,15.2,23,22.8c-0.1-0.6-0.1-1.2-0.2-1.7
			c0.5,0.8,1.1,1.5,1.8,2c0-0.3,0.1-0.7,0.3-0.9c0.5,0.9,1.9,1.9,2.6,2.1c0-0.4-0.1-0.8-0.1-1.2c0.8,0.8,1.7,1.4,2.8,1.8
			c0.2-0.5,0.3-1,0.5-1.4c0.5,0.7,1.3,1.3,2.3,1.9c-0.1-0.4-0.1-0.8-0.1-1.3c0.7,0.8,1.7,1,2.8,1.1c0-0.3,0.1-0.5,0.1-0.8
			c1.6,0.9,3,1.1,4.3,1.3c-0.7-1-1.4-2.2-2.3-3.2c0.5-0.1,0.9-0.3,1.4-0.4c-1-1-2.3-1.5-3.6-2c0.6-0.1,1.1-0.1,1.7-0.2
			c-0.8-0.7-1.6-1.2-3-1.8c0.8-0.2,1.5-0.3,2.3-0.5c-1.6-0.8-2.5-1.4-4.1-1.7c0.5-0.3,1.1-0.5,1.6-0.8c-1.2-1-1.8-1.6-3.9-2.2
			c0.5-0.2,1-0.4,1.5-0.5c-0.8-0.6-1.9-0.9-3-1.1c0.6-0.3,1.2-0.6,1.8-0.9c-8.1-6.9-20-16.5-30.8-11.4C64.2,80,64.3,80.3,64.4,80.7
			L64.4,80.7z"/>
		<path fill-rule="evenodd" clip-rule="evenodd" fill="#1D1D1B" d="M64,78c0.9-14.1-5.2-17.7-16.7-29c-0.1,0.6-0.2,1.2-0.3,1.8
			c-0.2-0.9-0.7-1.8-1.3-2.5c-0.1,0.3-0.3,0.6-0.5,0.8c-0.2-1-1.3-2.4-2-2.7c-0.1,0.4-0.1,0.8-0.2,1.2c-0.6-1-1.3-1.9-2.3-2.6
			c-0.3,0.4-0.6,0.9-0.9,1.3c-0.3-0.9-1-1.7-1.7-2.5c0,0.5-0.1,0.9-0.3,1.3c-0.5-0.9-1.4-1.5-2.5-1.9c-0.1,0.3-0.2,0.5-0.3,0.8
			c-1.4-1.3-2.6-1.9-3.9-2.4c0.4,1.2,0.7,2.6,1.4,3.8c-0.5,0-1,0-1.5,0c0.8,1.2,1.9,2.1,3,3c-0.6-0.1-1.2-0.2-1.8-0.3
			c0.6,1,1.3,1.7,2.4,2.6c-0.8-0.1-1.6-0.1-2.4-0.2c1.4,1.3,2.1,2.1,3.6,2.8c-0.6,0.1-1.2,0.2-1.8,0.3c1,1.3,1.3,2.1,3.3,3.2
			c-0.5,0-1.1,0.1-1.6,0.1c0.7,0.8,1.6,1.4,2.7,1.9c-0.7,0.1-1.3,0.2-2,0.4c6.1,9.1,15.3,21.9,27.5,19.8C63.9,78.7,63.9,78.4,64,78
			L64,78z"/>
		<path fill-rule="evenodd" clip-rule="evenodd" fill="#1D1D1B" d="M77.8-28.8c0.9,0.2,1.9,0.3,2.8,0.5c-1.3-0.9-2.3-2-3.1-3.2
			c0.5,0,1.1-0.1,1.5-0.4c-1.4-0.9-2.9-3.3-3.1-4.4c0.7,0.1,1.3,0.2,2,0.3c-1.2-1.4-2.1-3-2.7-4.8c0.8-0.2,1.6-0.4,2.4-0.7
			c-1.1-0.9-2-2.3-2.8-3.9c0.7,0.2,1.4,0.3,2.2,0.3c-1.2-1.3-1.5-2.9-1.5-4.8c0.5,0,0.9,0,1.4-0.1c-1.3-2.7-1.5-5-1.6-7.2
			c1.5,1.2,3.5,2.5,5,4.1c0.3-0.8,0.6-1.5,0.9-2.3c1.5,1.8,2.2,4,2.9,6.1c0.2-0.9,0.3-1.9,0.5-2.8c1.1,1.4,1.9,2.8,2.6,5.1
			c0.3-1.2,0.7-2.5,1-3.7c1.2,2.8,2,4.3,2.3,7c0.5-0.9,1-1.7,1.5-2.6c1.5,2.2,2.4,3.1,3.1,6.7c0.4-0.8,0.7-1.6,1.1-2.3
			c0.9,1.5,1.3,3.2,1.5,5.1c0.5-0.9,1.1-1.9,1.6-2.8c10.4,14.1,24.9,34.9,15.2,52.1C94.7,8.7,90.9-9,77.8-28.8L77.8-28.8z"/>
		<path fill-rule="evenodd" clip-rule="evenodd" fill="#1D1D1B" d="M40.9,101.6C92.6,50.9,120.4,8.9,150.1-57.1l0.9,1
			c-14.1,33.6-37.9,79-61.2,106.9c-16.4,19.6-30,34.9-47.5,53.2L40.9,101.6L40.9,101.6z"/>
		<path fill-rule="evenodd" clip-rule="evenodd" fill="#1D1D1B" d="M116,13.3c27.9-0.6,41.5,4.9,69.5,11.8
			C162.4,20.1,139.3,15.6,116,13.3L116,13.3z"/>
		<path fill-rule="evenodd" clip-rule="evenodd" fill="#1D1D1B" d="M100.4,36.2c28,9.6,38.4,14.6,63.5,29.8
			C141.9,54.8,123.5,46,100.4,36.2L100.4,36.2z"/>
		<path fill-rule="evenodd" clip-rule="evenodd" fill="#1D1D1B" d="M82.3,59.9c23.4,8,30.4,15.1,49.4,30.3
			C108.9,74.7,109,73,82.3,59.9L82.3,59.9z"/>
		<path fill-rule="evenodd" clip-rule="evenodd" fill="#1D1D1B" d="M64.4,79.6c17.7,7.4,19.7,9.3,33.5,21.7
			C80.3,88.8,90,93.3,64.4,79.6L64.4,79.6z"/>
		<path fill-rule="evenodd" clip-rule="evenodd" fill="#1D1D1B" d="M114.5,11.8C104-12,100.1-18.2,86.4-40
			C95.7-21.6,104.5-6,114.5,11.8L114.5,11.8z"/>
		<path fill-rule="evenodd" clip-rule="evenodd" fill="#1D1D1B" d="M98.8,35.9C87.7,8.4,83.8,4,66.1-20C79.1,0,87.4,13.6,98.8,35.9
			L98.8,35.9z"/>
		<path fill-rule="evenodd" clip-rule="evenodd" fill="#1D1D1B" d="M82.4,58.1C72.2,39.6,61.2,26.9,50.2,15.5
			C61.6,30.1,70.5,40,82.4,58.1L82.4,58.1z"/>
		<path fill-rule="evenodd" clip-rule="evenodd" fill="#1D1D1B" d="M63.4,78.9C57.2,68.6,47.6,57,38.3,49.5
			C48.4,59.1,56.9,70.3,63.4,78.9L63.4,78.9z"/>
	</g>
	<g>
		<path fill="#639B53" d="M315.8,111.4c-1.1,1.3-5,6.1-10.5,14.6c-5.4,8.5-12.7,29.5-28.6,36.3c-15.8,6.8-23.4,5.1-30.1,5.1
			c6.9,2.6,13.5,3.3,20.9,13.9c7.4,10.7,10.9,18.3,13.7,20.2c2.8,1.9,1.9,2-1.3,2.8c-3.3,0.8-23.9,4.1-41-4.4
			c-17.2-8.5-22-16.9-23-23.2c-1-6.3,2.8-12,2.1-13.7c-0.4-0.9-0.6-1.8-0.8-2.2c-0.7,3.3-1.4,9.7-4.7,16.6
			c-3.6,7.4-8.9,15.2-15,22.7c-6.1,7.4-11.5,13.8-12.6,15.3c-1.1,1.4-1.4,3-1.6,4.8c-0.3,1.8-2.8,1.6-5.5,1.9
			c-2.7,0.4-5.9,0.6-3.8-1.9c0.7-0.8,3.8-3.6,4.9-5.4c1-1.8,6.3-6.9,10-10.6c3.6-3.8,14.4-16.5,17.5-22.4c5-9.3,6.8-17.8,7.2-21.8
			c-1.2,0.4-1.6,3.1-2.2,6.2c-0.7,3.7-4.9,12.4-22.3,13c-17.4,0.6-35.5-8.1-43.3-11.5c-7.8-3.4-10.3-4.4-13-4.8
			c-2.7-0.4-1.5-0.5,1-2.5c2.6-2,12.7-7.8,27.4-9.7c14.7-1.9,19.6-1.8,22.8-1.9c-6.4-2-20.4-5-28.6-21.3
			c-8.8-17.4-5.9-32.5-6.8-38.1c-1-5.7-0.9-13.5-1.4-15.3c-0.4-1.8,0.8-1.3,2.8,0.7c1.9,2,26.4,15.6,36,27.2
			c13.6,16.5,14.6,20.9,20.2,32.6c2.3-0.2-11.5-24.3-0.5-55.2c11-30.5,36.3-47.1,37.8-50.9c1.6-3.7,2.1-4.4,2.7-0.8
			c0.5,3.6,13.8,37.7,9.2,68.1c-2.4,15.9-10.4,30.8-23.1,45c8.8-6.1,18.1-13.9,34.8-19.9c16.8-6,41.4-6.8,45.7-10.1
			C317.1,107.7,317,110.1,315.8,111.4z"/>
	</g>
	<g>
		<path fill="#639B53" d="M638.8,109.5c-1.1,1.3-5,6.1-10.5,14.6c-5.4,8.5-12.7,29.5-28.6,36.3c-15.8,6.8-23.4,5.1-30.1,5.1
			c6.9,2.6,13.5,3.3,20.9,13.9c7.4,10.7,10.9,18.3,13.7,20.2c2.8,1.9,1.9,2-1.3,2.8c-3.3,0.8-23.9,4.1-41-4.4
			c-17.2-8.5-22-16.9-23-23.2c-1-6.3,2.8-12,2.1-13.7c-0.4-0.9-0.6-1.8-0.8-2.2c-0.7,3.3-1.4,9.7-4.7,16.6
			c-3.6,7.4-8.9,15.2-15,22.7c-6.1,7.4-11.5,13.8-12.6,15.3c-1.1,1.4-1.4,3-1.6,4.8c-0.3,1.8-2.8,1.6-5.5,1.9
			c-2.7,0.4-5.9,0.6-3.8-1.9c0.7-0.8,3.8-3.6,4.9-5.4c1-1.8,6.3-6.9,10-10.6c3.6-3.8,14.4-16.5,17.5-22.4c5-9.3,6.8-17.8,7.2-21.8
			c-1.2,0.4-1.6,3.1-2.2,6.2c-0.7,3.7-4.9,12.4-22.3,13c-17.4,0.6-35.5-8.1-43.3-11.5c-7.8-3.4-10.3-4.4-13-4.8
			c-2.7-0.4-1.5-0.5,1-2.5c2.6-2,12.7-7.8,27.4-9.7c14.7-1.9,19.6-1.8,22.8-1.9c-6.4-2-20.4-5-28.6-21.3
			c-8.8-17.4-5.9-32.5-6.8-38.1c-1-5.7-0.9-13.5-1.4-15.3c-0.4-1.8,0.8-1.3,2.8,0.7c1.9,2,26.4,15.6,36,27.2
			c13.6,16.5,14.6,20.9,20.2,32.6c2.3-0.2-11.5-24.3-0.5-55.2c11-30.5,36.3-47.1,37.8-50.9c1.6-3.7,2.1-4.4,2.7-0.8
			c0.5,3.6,13.8,37.7,9.2,68.1c-2.4,15.9-10.4,30.8-23.1,45c8.8-6.1,18.1-13.9,34.8-19.9c16.8-6,41.4-6.8,45.7-10.1
			C640,105.8,639.9,108.3,638.8,109.5z"/>
	</g>
	<g>
		<path fill="#C2C656" d="M230.9,86.1c-1.1,1.3-5,6.1-10.5,14.6c-5.4,8.5-12.7,29.5-28.6,36.3c-15.8,6.8-23.4,5.1-30.1,5.1
			c6.9,2.6,13.5,3.3,20.9,13.9c7.4,10.7,10.9,18.3,13.7,20.2c2.8,1.9,1.9,2-1.3,2.8c-3.3,0.8-23.9,4.1-41-4.4
			c-17.2-8.5-22-16.9-23-23.2c-1-6.3,2.8-12,2.1-13.7c-0.4-0.9-0.6-1.8-0.8-2.2c-0.7,3.3-1.4,9.7-4.7,16.6
			c-3.6,7.4-8.9,15.2-15,22.7c-6.1,7.4-11.5,13.8-12.6,15.3c-1.1,1.4-1.4,3-1.6,4.8c-0.3,1.8-2.8,1.6-5.5,1.9
			c-2.7,0.4-5.9,0.6-3.8-1.9c0.7-0.8,3.8-3.6,4.9-5.4c1-1.8,6.3-6.9,10-10.6c3.6-3.8,14.4-16.5,17.5-22.4c5-9.3,6.8-17.8,7.2-21.8
			c-1.2,0.4-1.6,3.1-2.2,6.2c-0.7,3.7-4.9,12.4-22.3,13c-17.4,0.6-35.5-8.1-43.3-11.5c-7.8-3.4-10.3-4.4-13-4.8
			c-2.7-0.4-1.5-0.5,1-2.5c2.6-2,12.7-7.8,27.4-9.7c14.7-1.9,19.6-1.8,22.8-1.9c-6.4-2-20.4-5-28.6-21.3
			c-8.8-17.4-5.9-32.5-6.8-38.1c-1-5.7-0.9-13.5-1.4-15.3c-0.4-1.8,0.8-1.3,2.8,0.7c1.9,2,26.4,15.6,36,27.2
			c13.6,16.5,14.6,20.9,20.2,32.6c2.3-0.2-11.5-24.3-0.5-55.2C131.7,23.6,157,7,158.5,3.3c1.6-3.7,2.1-4.4,2.7-0.8
			c0.5,3.6,13.8,37.7,9.2,68.1c-2.4,15.9-10.4,30.8-23.1,45c8.8-6.1,18.1-13.9,34.8-19.9c16.8-6,41.4-6.8,45.7-10.1
			C232.1,82.4,232,84.8,230.9,86.1z"/>
	</g>
	<g>
		<path fill="#C2C656" d="M471.8,99.6c-1.1,1.3-5,6.1-10.5,14.6c-5.4,8.5-12.7,29.5-28.6,36.3c-15.8,6.8-23.4,5.1-30.1,5.1
			c6.9,2.6,13.5,3.3,20.9,13.9c7.4,10.7,10.9,18.3,13.7,20.2c2.8,1.9,1.9,2-1.3,2.8c-3.3,0.8-23.9,4.1-41-4.4
			c-17.2-8.5-22-16.9-23-23.2c-1-6.3,2.8-12,2.1-13.7c-0.4-0.9-0.6-1.8-0.8-2.2c-0.7,3.3-1.4,9.7-4.7,16.6
			c-3.6,7.4-8.9,15.2-15,22.7c-6.1,7.4-11.5,13.8-12.6,15.3c-1.1,1.4-1.4,3-1.6,4.8c-0.3,1.8-2.8,1.6-5.5,1.9
			c-2.7,0.4-5.9,0.6-3.8-1.9c0.7-0.8,3.8-3.6,4.9-5.4c1-1.8,6.3-6.9,10-10.6c3.6-3.8,14.4-16.5,17.5-22.4c5-9.3,6.8-17.8,7.2-21.8
			c-1.2,0.4-1.6,3.1-2.2,6.2c-0.7,3.7-4.9,12.4-22.3,13c-17.4,0.6-35.5-8.1-43.3-11.5c-7.8-3.4-10.3-4.4-13-4.8
			c-2.7-0.4-1.5-0.5,1-2.5c2.6-2,12.7-7.8,27.4-9.7c14.7-1.9,19.6-1.8,22.8-1.9c-6.4-2-20.4-5-28.6-21.3
			c-8.8-17.4-5.9-32.5-6.8-38.1c-1-5.7-0.9-13.5-1.4-15.3c-0.4-1.8,0.8-1.3,2.8,0.7c1.9,2,26.4,15.6,36,27.2
			c13.6,16.5,14.6,20.9,20.2,32.6c2.3-0.2-11.5-24.3-0.5-55.2c11-30.5,36.3-47.1,37.8-50.9c1.6-3.7,2.1-4.4,2.7-0.8
			c0.5,3.6,13.8,37.7,9.2,68.1c-2.4,15.9-10.4,30.8-23.1,45c8.8-6.1,18.1-13.9,34.8-19.9c16.8-6,41.4-6.8,45.7-10.1
			C473,95.9,472.9,98.3,471.8,99.6z"/>
	</g>
	<path fill="#084829" d="M-50.6,85.4c1.4-20.3,4.7-38.8,13.5-53.1c2.5-4.1,5.3-7.7,8.2-11.1l52.5,25.1c0,0,0.1-0.1,0.1-0.1
		c-7.6-4-28-15.5-47.2-30.9c9-9.2,44.8-25.5,50.2-31.2c0.8-0.8,2.1-0.9,2.9-0.1c8.4,7.6,15.4,16.9,23,25.4c1.6,1.8,4.4-0.1,3.5-2.2
		c-3.1-6.9-6.2-14-10.6-20.7c-0.8-1.3,0-3,1.5-3.2c13.7-1.8,24.5-7.9,33-15.2c1-0.9,2.6-0.6,3.2,0.6c4.3,8.4,5,11.2,10.4,18.5
		c1.2,1.6,3.8,0.8,3.8-1.2c0-7.6-1.4-13.5,1.6-20c3-6.5,24.4-3.2,34.7-1.5c1.4,0.2,2.2,1.8,1.5,3c-0.9,1.5-1.9,3.1-3,4.7
		c-0.3,0.4-0.4,1-0.4,1.5c2.1,12.9,4.8,33.1,0,36.7c-5.5,4.1-10.7,2.8-17.4,3.5c-1.8,0.2-2.5,2.4-1.2,3.6c7.3,6.5,9.6,6.9,17.5,11.4
		c1,0.6,1.3,1.8,0.8,2.8c-5.8,10.4-10.4,23.5-11.1,39.3c-0.1,1.7-1.9,2.6-3.3,1.6c-5.8-4-11.7-6.8-17.7-9.5c-2.1-1-4,1.7-2.3,3.4
		c8.1,8.2,16.8,15.4,24,24.5c0.6,0.7,0.6,1.7,0.1,2.5c-4.5,6.7-27.1,36.4-34.1,47.2C72.8,122,61.5,101,57.1,92.6
		c0,0-0.1,0.1-0.1,0.1l25.4,54.5c-2.6,3.6-5.5,7-8.7,10.2c-11.3,11.3-26.7,17.3-44,21.6c-2.7-23.7-5.4-44.2-6.1-48.8
		c0,0,0,0-0.1,0.1c0,0.3,0.1,0.6,0.1,1.1c0.8,7.1-1.1,27-4,50c-25.4,5.4-50.5-10.8-75.5,1.5c-1.6-3.8-1.4-9.5,0.1-16.5
		c0,0,0,0-0.1,0c7.4-28.5,3.3-40.3,4.5-69.3c18.8-5.2,35.1-9.1,42.5-9.6c0.1-0.1,0.1-0.2,0.2-0.3C-15.4,86.8-31.8,85.9-50.6,85.4z"
		/>
	<g>
		<path fill="#639B53" d="M180.8,122.8c-1,1.1-4.4,5.3-9.1,12.7c-4.7,7.4-11.1,25.8-24.9,31.7c-13.8,6-20.5,4.4-26.3,4.4
			c6,2.3,11.8,2.9,18.2,12.2c6.4,9.3,9.5,15.9,12,17.6c2.5,1.7,1.7,1.7-1.1,2.4c-2.8,0.7-20.8,3.5-35.8-3.9
			c-15-7.4-19.2-14.8-20.1-20.2c-0.9-5.5,2.4-10.4,1.8-12c-0.3-0.8-0.5-1.5-0.7-1.9c-0.6,2.9-1.2,8.5-4.1,14.5
			c-3.1,6.5-7.8,13.3-13.1,19.8c-5.3,6.5-10.1,12.1-11,13.3c-0.9,1.2-1.2,2.6-1.4,4.2c-0.2,1.5-2.5,1.4-4.8,1.7
			c-2.4,0.3-5.2,0.5-3.3-1.6c0.6-0.7,3.4-3.1,4.3-4.7c0.9-1.6,5.5-6,8.7-9.3c3.2-3.3,12.6-14.4,15.3-19.6c4.3-8.1,6-15.6,6.3-19
			c-1.1,0.4-1.4,2.7-1.9,5.4C89,173.9,85.3,181.5,70,182c-15.2,0.5-31-7.1-37.8-10c-6.8-3-9-3.9-11.4-4.2c-2.4-0.4-1.3-0.4,0.9-2.2
			c2.3-1.7,11.1-6.8,23.9-8.5c12.8-1.7,17.1-1.6,19.9-1.6c-5.6-1.8-17.8-4.4-25-18.6c-7.7-15.2-5.1-28.4-6-33.3
			c-0.9-4.9-0.8-11.8-1.2-13.4c-0.4-1.6,0.7-1.1,2.4,0.6c1.7,1.7,23.1,13.6,31.5,23.8C79.2,129,80,132.8,85,143.1
			c2-0.1-10.1-21.3-0.4-48.2c9.6-26.6,31.7-41.2,33-44.4c1.4-3.3,1.8-3.8,2.3-0.7c0.5,3.1,12.1,32.9,8,59.5
			c-2.1,13.9-9,26.9-20.2,39.3c7.7-5.4,15.8-12.1,30.4-17.4c14.7-5.2,36.2-5.9,40-8.8C181.9,119.5,181.8,121.7,180.8,122.8z"/>
	</g>
	<g opacity="0.49">
		<path fill-rule="evenodd" clip-rule="evenodd" fill="#1D1D1B" d="M262.7,2.6c-20.2-14.2-31-8.2-58.2-1.6c0.8,0.7,1.6,1.4,2.3,2.1
			c-1.6-0.5-3.2-0.6-4.9-0.4c0.4,0.4,0.7,0.9,0.7,1.5c-1.7-0.6-4.7-0.2-5.9,0.4c0.5,0.5,1.1,1,1.6,1.4c-2-0.1-4,0.3-5.9,1
			c0.4,0.8,0.7,1.7,1.1,2.5c-1.6-0.3-3.4-0.1-5.2,0.4c0.7,0.5,1.2,1,1.7,1.6c-1.9-0.1-3.5,0.8-5.1,2c0.3,0.4,0.6,0.8,0.9,1.2
			c-3.2,0.8-5.2,2.2-7.2,3.6c2.1,0.4,4.5,1.3,6.9,1.4c-0.4,0.8-0.9,1.5-1.3,2.3c2.5,0,4.8-0.9,7.2-1.7c-0.7,0.8-1.4,1.6-2.1,2.3
			c1.9,0,3.6-0.4,6.1-1.3c-0.8,1.1-1.6,2.3-2.4,3.4c3.2-0.9,5-1.3,7.5-2.8c-0.4,1-0.8,2-1.1,3c2.8-0.3,4.3-0.1,7.8-2
			c-0.4,0.8-0.8,1.7-1.2,2.5c1.8-0.2,3.6-1.1,5.3-2.2c-0.4,1.1-0.8,2.2-1.3,3.3c19-0.9,46.5-2.9,54.3-23
			C263.8,3.3,263.3,2.9,262.7,2.6L262.7,2.6z"/>
		<path fill-rule="evenodd" clip-rule="evenodd" fill="#1D1D1B" d="M279.2,28.4c-8.4,23.4-20.8,24.7-47.1,35c0.2-1,0.5-2,0.7-3
			c-1,1.3-2.3,2.4-3.8,3.2c0-0.6,0-1.2-0.3-1.7c-1.1,1.5-3.8,2.9-5.1,3c0.2-0.7,0.3-1.4,0.5-2.1c-1.6,1.2-3.4,2.1-5.4,2.5
			c-0.2-0.9-0.4-1.8-0.5-2.7c-1.1,1.2-2.7,2-4.5,2.7c0.3-0.8,0.4-1.5,0.5-2.3c-1.5,1.2-3.3,1.4-5.4,1.3c0-0.5,0-1,0-1.5
			c-3.1,1.2-5.6,1.2-8,1.2c1.5-1.6,3-3.7,4.9-5.2c-0.8-0.4-1.6-0.7-2.4-1.1c2.1-1.5,4.5-2.1,6.9-2.7c-1-0.2-2-0.5-3-0.7
			c1.6-1.1,3.2-1.8,5.7-2.5c-1.3-0.5-2.6-0.9-4-1.4c3.1-1.1,4.8-1.8,7.8-2c-0.9-0.6-1.8-1.2-2.7-1.8c2.5-1.4,3.6-2.4,7.6-2.9
			c-0.8-0.5-1.6-0.9-2.5-1.3c1.7-0.9,3.6-1.2,5.7-1.2c-1-0.7-2-1.3-3-2c16.2-10.3,40-24.5,58.1-12.5
			C279.7,27.2,279.4,27.8,279.2,28.4L279.2,28.4z"/>
		<path fill-rule="evenodd" clip-rule="evenodd" fill="#1D1D1B" d="M282.6,25.9c21.8-5.1,26-20.5,38-43c-0.9,0.1-1.9,0.2-2.8,0.3
			c1.3-0.8,2.4-1.8,3.2-3.1c-0.5,0-1.1-0.1-1.5-0.4c1.4-0.8,3-3.1,3.3-4.3c-0.7,0.1-1.3,0.2-2,0.2c1.3-1.3,2.2-2.9,2.9-4.6
			c-0.8-0.3-1.6-0.5-2.4-0.8c1.2-0.9,2.1-2.2,2.9-3.8c-0.7,0.2-1.4,0.2-2.1,0.2c1.2-1.2,1.6-2.8,1.7-4.7c-0.4,0-0.9-0.1-1.3-0.1
			c1.4-2.7,1.7-4.9,1.9-7.1c-1.6,1.2-3.6,2.3-5.1,3.9c-0.2-0.8-0.5-1.5-0.8-2.3c-1.5,1.7-2.3,3.8-3.2,5.9c-0.1-0.9-0.2-1.9-0.3-2.8
			c-1.2,1.3-2,2.7-2.8,4.9c-0.3-1.2-0.6-2.5-0.8-3.7c-1.3,2.7-2.1,4.2-2.6,6.8c-0.4-0.9-0.9-1.7-1.4-2.6c-1.5,2.1-2.5,2.9-3.4,6.5
			c-0.3-0.8-0.6-1.6-1-2.3c-0.9,1.4-1.4,3.1-1.7,4.9c-0.5-0.9-1-1.9-1.5-2.9C289-15.4,272.1,9,281,26.4
			C281.5,26.3,282.1,26.1,282.6,25.9L282.6,25.9z"/>
		<path fill-rule="evenodd" clip-rule="evenodd" fill="#1D1D1B" d="M296.1,49.4c-19.2-4.5-25.4,3.2-43.6,16.2
			c0.8,0.3,1.6,0.6,2.3,0.8c-1.3,0.1-2.6,0.5-3.7,1.1c0.4,0.2,0.8,0.5,1,0.9c-1.4,0.1-3.6,1.3-4.2,2.1c0.5,0.2,1.1,0.4,1.6,0.6
			c-1.5,0.5-2.8,1.4-4,2.5c0.5,0.5,1,1,1.6,1.5c-1.3,0.2-2.5,0.9-3.8,1.8c0.6,0.1,1.2,0.4,1.7,0.7c-1.4,0.5-2.4,1.6-3.2,3
			c0.3,0.2,0.7,0.4,1,0.6c-2.1,1.6-3.2,3.2-4.2,4.8c1.7-0.3,3.7-0.4,5.5-1c-0.1,0.7-0.2,1.4-0.3,2.1c1.9-0.8,3.3-2.1,4.8-3.4
			c-0.3,0.8-0.6,1.6-0.8,2.3c1.5-0.6,2.6-1.4,4.1-2.8c-0.3,1.1-0.5,2.2-0.8,3.2c2.1-1.6,3.3-2.4,4.7-4.3c0,0.9,0,1.7,0.1,2.6
			c2-1,3.2-1.3,5.2-3.8c-0.1,0.7-0.1,1.5-0.2,2.2c1.3-0.7,2.3-1.9,3.2-3.2c0,0.9,0,1.9,0.1,2.8c13.8-6.3,33.6-16,33.4-33.3
			C297.1,49.6,296.6,49.5,296.1,49.4L296.1,49.4z"/>
		<path fill-rule="evenodd" clip-rule="evenodd" fill="#1D1D1B" d="M297,46.9c-2.5-19.6,5.7-25,20.6-41.8c0.2,0.8,0.4,1.6,0.6,2.4
			c0.3-1.3,0.8-2.5,1.5-3.6c0.2,0.4,0.4,0.8,0.8,1.1c0.2-1.4,1.7-3.4,2.5-4c0.1,0.6,0.3,1.1,0.4,1.7c0.7-1.5,1.7-2.7,2.9-3.8
			c0.4,0.6,0.9,1.1,1.4,1.7c0.4-1.2,1.2-2.4,2.2-3.6c0.1,0.6,0.2,1.2,0.5,1.8c0.6-1.3,1.9-2.2,3.3-2.8c0.2,0.4,0.3,0.7,0.5,1.1
			c1.8-1.9,3.5-2.9,5.2-3.7c-0.5,1.6-0.8,3.7-1.6,5.4c0.7,0,1.4-0.1,2.1-0.1c-0.9,1.8-2.4,3.1-3.9,4.4c0.8-0.2,1.6-0.4,2.4-0.6
			c-0.7,1.4-1.6,2.4-3.2,3.8c1.1-0.2,2.2-0.3,3.3-0.5c-1.8,1.9-2.8,3-4.8,4.2c0.8,0.1,1.7,0.2,2.6,0.3c-1.2,1.9-1.6,3-4.3,4.8
			c0.7,0,1.5,0,2.2,0.1c-0.9,1.2-2.1,2.1-3.6,2.9c0.9,0.1,1.9,0.2,2.8,0.3c-7.7,13.1-19.4,31.8-36.5,29.8
			C297.1,47.9,297,47.4,297,46.9L297,46.9z"/>
		<path fill-rule="evenodd" clip-rule="evenodd" fill="#1D1D1B" d="M315.3,70.7c-2.8,13.5-9.4,15.2-23,22.8c0.1-0.6,0.1-1.2,0.2-1.7
			c-0.5,0.8-1.1,1.5-1.8,2c0-0.3-0.1-0.7-0.3-0.9c-0.5,0.9-1.9,1.9-2.6,2.1c0-0.4,0.1-0.8,0.1-1.2c-0.8,0.8-1.7,1.4-2.8,1.8
			c-0.2-0.5-0.3-1-0.5-1.4c-0.5,0.7-1.3,1.3-2.3,1.9c0.1-0.4,0.1-0.8,0.1-1.3c-0.7,0.8-1.7,1-2.8,1.1c0-0.3-0.1-0.5-0.1-0.8
			c-1.6,0.9-3,1.1-4.3,1.3c0.7-1,1.4-2.2,2.3-3.2c-0.5-0.1-0.9-0.3-1.4-0.4c1-1,2.3-1.5,3.6-2c-0.6-0.1-1.1-0.1-1.7-0.2
			c0.8-0.7,1.6-1.2,3-1.8c-0.8-0.2-1.5-0.3-2.3-0.5c1.6-0.8,2.5-1.4,4.1-1.7c-0.5-0.3-1.1-0.5-1.6-0.8c1.2-1,1.8-1.6,3.9-2.2
			c-0.5-0.2-1-0.4-1.5-0.5c0.8-0.6,1.9-0.9,3-1.1c-0.6-0.3-1.2-0.6-1.8-0.9c8.1-6.9,20-16.5,30.8-11.4
			C315.5,70,315.4,70.3,315.3,70.7L315.3,70.7z"/>
		<path fill-rule="evenodd" clip-rule="evenodd" fill="#1D1D1B" d="M315.8,68c-0.9-14.1,5.2-17.7,16.7-29c0.1,0.6,0.2,1.2,0.3,1.8
			c0.2-0.9,0.7-1.8,1.3-2.5c0.1,0.3,0.3,0.6,0.5,0.8c0.2-1,1.3-2.4,2-2.7c0.1,0.4,0.1,0.8,0.2,1.2c0.6-1,1.3-1.9,2.3-2.6
			c0.3,0.4,0.6,0.9,0.9,1.3c0.3-0.9,1-1.7,1.7-2.5c0,0.5,0.1,0.9,0.3,1.3c0.5-0.9,1.4-1.5,2.5-1.9c0.1,0.3,0.2,0.5,0.3,0.8
			c1.4-1.3,2.6-1.9,3.9-2.4c-0.4,1.2-0.7,2.6-1.4,3.8c0.5,0,1,0,1.5,0c-0.8,1.2-1.9,2.1-3,3c0.6-0.1,1.2-0.2,1.8-0.3
			c-0.6,1-1.3,1.7-2.4,2.6c0.8-0.1,1.6-0.1,2.4-0.2c-1.4,1.3-2.1,2.1-3.6,2.8c0.6,0.1,1.2,0.2,1.8,0.3c-1,1.3-1.3,2.1-3.3,3.2
			c0.5,0,1.1,0.1,1.6,0.1c-0.7,0.8-1.6,1.4-2.7,1.9c0.7,0.1,1.3,0.2,2,0.4c-6.1,9.1-15.3,21.9-27.5,19.8
			C315.8,68.7,315.8,68.4,315.8,68L315.8,68z"/>
		<path fill-rule="evenodd" clip-rule="evenodd" fill="#1D1D1B" d="M302-38.8c-0.9,0.2-1.9,0.3-2.8,0.5c1.3-0.9,2.3-2,3.1-3.2
			c-0.5,0-1.1-0.1-1.5-0.4c1.4-0.9,2.9-3.3,3.1-4.4c-0.7,0.1-1.3,0.2-2,0.3c1.2-1.4,2.1-3,2.7-4.8c-0.8-0.2-1.6-0.4-2.4-0.7
			c1.1-0.9,2-2.3,2.8-3.9c-0.7,0.2-1.4,0.3-2.2,0.3c1.2-1.3,1.5-2.9,1.5-4.8c-0.5,0-0.9,0-1.4-0.1c1.3-2.7,1.5-5,1.6-7.2
			c-1.5,1.2-3.5,2.5-5,4.1c-0.3-0.8-0.6-1.5-0.9-2.3c-1.5,1.8-2.2,4-2.9,6.1c-0.2-0.9-0.3-1.9-0.5-2.8c-1.1,1.4-1.9,2.8-2.6,5.1
			c-0.3-1.2-0.7-2.5-1-3.7c-1.2,2.8-2,4.3-2.3,7c-0.5-0.9-1-1.7-1.5-2.6c-1.5,2.2-2.4,3.1-3.1,6.7c-0.4-0.8-0.7-1.6-1.1-2.3
			c-0.9,1.5-1.3,3.2-1.5,5.1c-0.5-0.9-1.1-1.9-1.6-2.8c-10.4,14.1-24.9,34.9-15.2,52.1C285-1.3,288.8-19,302-38.8L302-38.8z"/>
		<path fill-rule="evenodd" clip-rule="evenodd" fill="#1D1D1B" d="M338.8,91.6C287.1,40.9,259.3-1.1,229.6-67.1l-0.9,1
			c14.1,33.6,37.9,79,61.2,106.9c16.4,19.6,30,34.9,47.5,53.2L338.8,91.6L338.8,91.6z"/>
		<path fill-rule="evenodd" clip-rule="evenodd" fill="#1D1D1B" d="M263.7,3.3c-27.9-0.6-41.5,4.9-69.5,11.8
			C217.3,10.1,240.4,5.6,263.7,3.3L263.7,3.3z"/>
		<path fill-rule="evenodd" clip-rule="evenodd" fill="#1D1D1B" d="M279.3,26.2c-28,9.6-38.4,14.6-63.5,29.8
			C237.8,44.8,256.2,36,279.3,26.2L279.3,26.2z"/>
		<path fill-rule="evenodd" clip-rule="evenodd" fill="#1D1D1B" d="M297.5,49.9C274,57.8,267,65,248.1,80.1
			C270.8,64.7,270.7,63,297.5,49.9L297.5,49.9z"/>
		<path fill-rule="evenodd" clip-rule="evenodd" fill="#1D1D1B" d="M315.3,69.6c-17.7,7.4-19.7,9.3-33.5,21.7
			C299.4,78.8,289.7,83.3,315.3,69.6L315.3,69.6z"/>
		<path fill-rule="evenodd" clip-rule="evenodd" fill="#1D1D1B" d="M265.2,1.8c10.5-23.8,14.4-30,28-51.8
			C284-31.6,275.2-16,265.2,1.8L265.2,1.8z"/>
		<path fill-rule="evenodd" clip-rule="evenodd" fill="#1D1D1B" d="M280.9,25.9C292-1.6,295.9-6,313.6-30
			C300.7-10,292.3,3.6,280.9,25.9L280.9,25.9z"/>
		<path fill-rule="evenodd" clip-rule="evenodd" fill="#1D1D1B" d="M297.3,48.1c10.2-18.5,21.2-31.2,32.2-42.6
			C318.1,20.1,309.2,30,297.3,48.1L297.3,48.1z"/>
		<path fill-rule="evenodd" clip-rule="evenodd" fill="#1D1D1B" d="M316.3,68.9c6.3-10.3,15.8-21.9,25.1-29.3
			C331.3,49.1,322.9,60.3,316.3,68.9L316.3,68.9z"/>
	</g>
	<path fill="#084829" d="M430.4,75.4c-1.4-20.3-4.7-38.8-13.5-53.1c-2.5-4.1-5.3-7.7-8.2-11.1l-52.5,25.1c0,0-0.1-0.1-0.1-0.1
		c7.6-4,28-15.5,47.2-30.9c-9-9.2-44.8-25.5-50.2-31.2c-0.8-0.8-2.1-0.9-2.9-0.1c-8.4,7.6-15.4,16.9-23,25.4
		c-1.6,1.8-4.4-0.1-3.5-2.2c3.1-6.9,6.2-14,10.6-20.7c0.8-1.3,0-3-1.5-3.2c-13.7-1.8-24.5-7.9-33-15.2c-1-0.9-2.6-0.6-3.2,0.6
		c-4.3,8.4-5,11.2-10.4,18.5c-1.2,1.6-3.8,0.8-3.8-1.2c0-7.6,1.4-13.5-1.6-20c-3-6.5-24.4-3.2-34.7-1.5c-1.4,0.2-2.2,1.8-1.5,3
		c0.9,1.5,1.9,3.1,3,4.7c0.3,0.4,0.4,1,0.4,1.5c-2.1,12.9-4.8,33.1,0,36.7c5.5,4.1,10.7,2.8,17.4,3.5c1.8,0.2,2.5,2.4,1.2,3.6
		c-7.3,6.5-9.6,6.9-17.5,11.4c-1,0.6-1.3,1.8-0.8,2.8c5.8,10.4,10.4,23.5,11.1,39.3c0.1,1.7,1.9,2.6,3.3,1.6
		c5.8-4,11.7-6.8,17.7-9.5c2.1-1,4,1.7,2.3,3.4c-8.1,8.2-16.8,15.4-24,24.5c-0.6,0.7-0.6,1.7-0.1,2.5c4.5,6.7,27.1,36.4,34.1,47.2
		c14.2-18.8,25.5-39.8,29.8-48.1c0,0,0.1,0.1,0.1,0.1l-25.4,54.5c2.6,3.6,5.5,7,8.7,10.2c11.3,11.3,26.7,17.3,44,21.6
		c2.7-23.7,5.4-44.2,6.1-48.8c0,0,0,0,0.1,0.1c0,0.3-0.1,0.6-0.1,1.1c-0.8,7.1,1.1,27,4,50c25.4,5.4,50.5-10.8,75.5,1.5
		c1.6-3.8,1.4-9.5-0.1-16.5c0,0,0,0,0.1,0c-7.4-28.5-3.3-40.3-4.5-69.3c-18.8-5.2-35.1-9.1-42.5-9.6c-0.1-0.1-0.1-0.2-0.2-0.3
		C395.2,76.8,411.6,75.9,430.4,75.4z"/>
	<g>
		<path fill="#C2C656" d="M67.6-7.2c-0.5,0.9-2.5,4.3-6.3,9.3c-3.8,5-14.6,13.9-15.1,24.6c-0.6,10.8,2.1,14.8,3.5,18.8
			c-3-3.5-4.9-7.2-12.7-9.2c-7.8-2-13.1-2.4-14.8-3.7c-1.7-1.3-1.6-0.7-1.4,1.4c0.2,2.1,2.8,14.9,11.5,23.1
			c8.7,8.2,14.7,9.2,18.6,8.5c3.9-0.7,6.4-4.2,7.6-4.2c0.6,0,1.2,0,1.5,0c-1.8,1.1-5.4,2.9-8.7,6.4c-3.6,3.7-7,8.5-10,13.7
			c-3,5.2-5.6,9.7-6.2,10.7c-0.6,0.9-1.5,1.4-2.5,2c-1,0.5-0.3,2,0.1,3.7c0.4,1.7,1,3.6,1.9,1.8c0.3-0.6,1.3-3,2.1-4
			c0.8-1,2.6-5.2,4.1-8.2c1.4-2.9,6.6-12,9.4-15.2c4.4-4.9,9-7.9,11.2-8.9c0,0.8-1.5,1.6-3.2,2.6c-2,1.2-6.2,5.6-2.8,15.9
			c3.4,10.4,12.5,19.1,16.1,22.9c3.7,3.8,4.8,5.1,5.7,6.6c0.8,1.5,0.6,0.8,1.2-1.1c0.6-1.9,1.8-9.2-0.2-18.2
			c-2.1-9-3.2-11.9-3.8-13.8c2.6,3.3,7.3,10.9,18.7,12.2c12.1,1.4,20.3-3.6,23.9-4.3c3.5-0.6,8.1-2.4,9.3-2.5c1.1-0.1,0.6-0.7-1-1.5
			c-1.6-0.7-14.9-12.1-23.8-15.2c-12.6-4.4-15.4-4-23.5-4.8c-0.4-1.4,16.8,1.5,32.5-11.7c15.5-13,19.8-31.5,21.6-33.2
			c1.8-1.7,2.1-2.2-0.1-1.7c-2.2,0.5-25.1,0.1-42,9.4C81,29.8,74,37.7,68.4,48.2c1.7-6.5,4.2-13.6,4.1-24.7c-0.1-11.1-5-25.8-4-29
			C69.6-8.8,68.2-8.2,67.6-7.2z"/>
	</g>
	<g>
		<path fill="#C2C656" d="M389.8,19.6c-0.4,1-1.6,4.7-3,10.8c-1.3,6.2-1.1,20.1-8.9,27.5c-7.8,7.4-12.6,8-16.6,9.5
			c4.6,0.1,8.6-1,15.3,3.7c6.6,4.6,10.3,8.3,12.4,8.8c2.1,0.5,1.6,0.7-0.2,1.9c-1.7,1.2-13.1,7.6-25,6.3
			c-11.9-1.2-16.5-5.1-18.5-8.6c-2-3.4-1-7.6-1.8-8.5c-0.4-0.5-0.7-0.9-1-1.1c0.3,2.1,1.3,6,0.8,10.8c-0.5,5.1-1.9,10.9-3.9,16.5
			c-2,5.7-3.8,10.6-4.1,11.7c-0.3,1.1-0.1,2.1,0.1,3.2c0.2,1.1-1.3,1.5-2.8,2.3c-1.5,0.8-3.4,1.6-2.6-0.3c0.2-0.6,1.5-2.9,1.7-4.2
			c0.2-1.3,2.2-5.4,3.6-8.4c1.3-3,4.9-12.8,5.4-17c0.9-6.5,0.1-11.9-0.5-14.3c-0.6,0.5-0.3,2.2,0.1,4.1c0.4,2.3-0.2,8.3-10.3,12.5
			c-10.1,4.1-22.6,2.9-27.9,2.6c-5.3-0.3-7-0.4-8.7,0c-1.7,0.4-1,0,0.1-1.7c1.1-1.7,5.8-7.3,13.9-11.6c8.2-4.3,11.1-5.3,13-6
			c-4.2,0.2-13,1.5-21.4-6.3c-9-8.3-10.5-17.8-12.3-20.9c-1.8-3.1-3.5-7.7-4.1-8.7c-0.6-0.9,0.2-0.9,1.8-0.2
			c1.6,0.7,18.9,3.4,27,8.1c11.6,6.7,13.1,9.1,18.9,14.7c1.3-0.6-12-11.8-12.2-32.3c-0.2-20.3,11.1-35.5,11.2-38
			c0.1-2.5,0.3-3,1.4-1c1.1,2,16.3,19.1,20.2,38c2,9.8,0.6,20.3-3.8,31.4c3.8-5.5,7.6-12.1,16.1-19.2c8.5-7.1,22.8-13,24.6-15.8
			C389.7,17.1,390.2,18.6,389.8,19.6z"/>
	</g>
	<g>
		<path fill="#C2C656" d="M526.4,93.4c-0.5,1.2-2,5.7-3.7,13.3c-1.6,7.6-1.3,24.6-10.9,33.7c-9.6,9.1-15.5,9.9-20.3,11.7
			c5.6,0.1,10.6-1.2,18.7,4.5c8.1,5.7,12.7,10.2,15.3,10.9c2.6,0.6,1.9,0.9-0.2,2.4c-2.1,1.5-16.1,9.3-30.7,7.7
			c-14.6-1.5-20.3-6.3-22.7-10.5c-2.4-4.2-1.2-9.3-2.2-10.4c-0.5-0.6-0.9-1.1-1.2-1.3c0.4,2.5,1.6,7.3,1,13.2
			c-0.6,6.3-2.3,13.3-4.8,20.3c-2.4,7-4.6,13-5,14.3c-0.4,1.3-0.2,2.5,0.1,3.9c0.3,1.3-1.6,1.9-3.5,2.9c-1.8,1-4.1,2-3.2-0.3
			c0.3-0.8,1.8-3.6,2.1-5.2c0.3-1.6,2.7-6.6,4.4-10.3c1.6-3.7,6-15.7,6.7-20.8c1.1-8,0.2-14.6-0.6-17.6c-0.8,0.6-0.3,2.6,0.1,5
			c0.5,2.8-0.2,10.2-12.6,15.3c-12.4,5.1-27.7,3.6-34.2,3.2c-6.5-0.4-8.6-0.5-10.6,0c-2.1,0.4-1.2,0.1,0.1-2.1
			c1.3-2.1,7.1-9,17.1-14.3c10-5.3,13.6-6.5,15.9-7.4c-5.2,0.2-16,1.8-26.2-7.7c-11-10.2-12.8-21.8-15.1-25.6
			c-2.2-3.8-4.3-9.5-5-10.6c-0.8-1.2,0.2-1.1,2.2-0.2c1.9,0.9,23.2,4.2,33.2,10c14.2,8.2,16,11.2,23.2,18.1
			c1.6-0.7-14.8-14.4-15-39.6c-0.2-24.9,13.6-43.6,13.7-46.7c0.1-3.1,0.4-3.7,1.7-1.3c1.3,2.4,20,23.5,24.7,46.6
			c2.5,12.1,0.7,24.9-4.7,38.6c4.7-6.8,9.3-14.8,19.8-23.6c10.5-8.8,28-15.9,30.2-19.4C526.3,90.4,526.8,92.2,526.4,93.4z"/>
	</g>
	<g>
		<path fill="#C2C656" d="M264.1,15.9c0.1,0.8,0.7,3.9,2.3,8.6c1.5,4.8,7.3,14.2,4.9,22.5c-2.4,8.2-5.5,10.6-7.6,13.2
			c3.2-1.8,5.5-4.1,12-3.6c6.4,0.5,10.5,1.6,12.1,1.1c1.6-0.5,1.4-0.1,0.7,1.4c-0.7,1.5-6,10.5-14.7,14.4
			c-8.7,3.9-13.4,3.1-16.2,1.5c-2.7-1.6-3.7-4.9-4.6-5.1c-0.5-0.1-0.9-0.3-1.1-0.4c1,1.3,3.3,3.6,4.9,7.1c1.7,3.7,3,8.2,4,12.9
			c0.9,4.7,1.7,8.8,1.9,9.7c0.2,0.9,0.7,1.5,1.3,2.1c0.6,0.7-0.3,1.6-1,2.7c-0.7,1.2-1.7,2.5-1.9,0.9c-0.1-0.5-0.2-2.6-0.5-3.6
			c-0.4-1-0.6-4.6-0.9-7.2c-0.3-2.6-1.8-10.7-3.1-13.9c-2-4.8-4.7-8.3-6.1-9.7c-0.2,0.6,0.7,1.6,1.7,2.8c1.2,1.4,3.2,5.8-2.1,12.7
			c-5.3,6.9-14.4,11.1-18.1,13c-3.8,1.9-4.9,2.5-6,3.5c-1,0.9-0.7,0.4-0.6-1.2c0.1-1.6,1-7.4,4.9-13.6c3.9-6.2,5.5-8.1,6.5-9.4
			c-2.8,1.8-8.4,6.2-17.2,4.3c-9.5-2.1-14.3-8-16.8-9.5c-2.5-1.4-5.5-3.9-6.3-4.3c-0.8-0.4-0.2-0.7,1.1-0.8
			c1.4-0.1,14.4-5.2,21.9-5.2c10.7,0,12.6,1,18.9,2.5c0.7-0.9-13-3.3-21.3-17.3c-8.3-13.9-6.6-28.9-7.6-30.6c-0.9-1.8-1-2.2,0.5-1.3
			c1.5,0.9,18.9,6.6,29.1,18c5.3,5.9,8.6,13.7,10,23.2c0.4-5.3,0.4-11.3,3.4-19.7c3-8.3,10.5-18.1,10.6-20.8
			C263.1,14.2,264,15,264.1,15.9z"/>
	</g>
</g>
<g id="leaves_right">
	<path fill="#009444" stroke="#000000" stroke-width="2" stroke-miterlimit="10" d="M225.6,216.9c4.1,36.5,11.3,69.7,28.3,94.8
		c4.7,7.1,10.1,13.5,15.6,19.5l92.8-49.3c0.1,0.1,0.1,0.1,0.2,0.2c-13.4,7.9-49.4,30.1-82.9,59.4c16.9,15.9,82.9,42.6,93,52.5
		c1.5,1.4,3.8,1.5,5.2,0c14.6-14.4,26.5-31.7,39.6-47.6c2.7-3.3,8-0.2,6.4,3.8c-5,12.7-10.2,25.7-17.5,38.2
		c-1.4,2.4,0.2,5.4,2.9,5.6c24.8,2.3,44.8,12.4,60.6,25c1.9,1.5,4.7,0.8,5.7-1.4c7.1-15.5,8.2-20.6,17.3-34.1c2-3,6.7-1.7,6.9,1.9
		c0.5,13.7-1.5,24.5,4.3,36c5.9,11.5,44.2,4,62.8,0.1c2.5-0.5,3.8-3.4,2.4-5.6c-1.7-2.7-3.6-5.4-5.7-8.2c-0.6-0.8-0.9-1.7-0.8-2.7
		c2.8-23.5,6.1-60.1-2.7-66.2c-10.2-7-19.5-4.3-31.7-5.1c-3.3-0.2-4.7-4.2-2.4-6.5c12.7-12.2,16.8-13.1,30.7-21.9
		c1.7-1.1,2.3-3.4,1.2-5.2c-11.2-18.4-20.5-41.6-23-70.2c-0.3-3-3.7-4.5-6-2.7c-10.1,7.7-20.7,13.1-31.2,18.5
		c-3.7,1.9-7.3-2.8-4.5-5.9c13.9-15.5,29.2-29.1,41.5-46c1-1.3,0.9-3.1,0-4.4c-8.7-11.8-51.6-63.6-65-82.7
		c-24.2,34.9-43.1,73.7-50.2,89.2c-0.1-0.1-0.1-0.1-0.2-0.2l41.8-100.3c-5-6.2-10.4-12.3-16.5-17.8c-21.2-19.6-49.5-29.2-81-35.6
		c-3.1,43-6.4,80.3-7.3,88.7c-0.1-0.1-0.1-0.1-0.1-0.1c0-0.5,0.1-1.1,0.1-1.9c1-12.9-4-48.6-11-90c-46.2-7.9-90.3,23.3-136.5,2.9
		c-2.6,7-1.9,17.3,1.4,29.8c0,0-0.1,0.1-0.1,0.1c15.6,50.9,8.9,72.4,13.3,124.9c34.4,8,64,13.9,77.5,14.1c0.1,0.2,0.2,0.3,0.4,0.5
		C289,211.8,259.5,214.5,225.6,216.9z"/>
	<path fill="#084829" stroke="#000000" stroke-width="2" stroke-miterlimit="10" d="M265.2,354.6c3.3,29.1,9,55.4,22.5,75.4
		c3.8,5.7,8,10.7,12.4,15.5l73.9-39.2c0,0,0.1,0.1,0.1,0.1c-10.6,6.3-39.3,24-66,47.2c13.5,12.6,65.9,33.9,74,41.8
		c1.2,1.1,3,1.2,4.2,0c11.6-11.5,21.1-25.3,31.5-37.9c2.2-2.6,6.3-0.2,5.1,3c-4,10.1-8.1,20.4-14,30.4c-1.1,1.9,0.1,4.3,2.3,4.5
		c19.7,1.8,35.6,9.9,48.2,19.9c1.5,1.2,3.8,0.6,4.6-1.1c5.6-12.3,6.5-16.4,13.8-27.1c1.6-2.4,5.4-1.3,5.5,1.5
		c0.4,10.9-1.2,19.5,3.5,28.6c4.7,9.2,35.2,3.2,50,0.1c2-0.4,3-2.7,1.9-4.5c-1.3-2.1-2.9-4.3-4.6-6.5c-0.5-0.6-0.7-1.4-0.6-2.2
		c2.3-18.7,4.9-47.8-2.2-52.7c-8.1-5.5-15.5-3.4-25.2-4c-2.6-0.2-3.8-3.4-1.9-5.2c10.1-9.7,13.3-10.4,24.4-17.4
		c1.4-0.9,1.8-2.7,0.9-4.1c-8.9-14.7-16.3-33.1-18.3-55.9c-0.2-2.4-2.9-3.6-4.8-2.1c-8.1,6.1-16.5,10.4-24.8,14.7
		c-3,1.5-5.8-2.2-3.6-4.7c11.1-12.3,23.2-23.1,33.1-36.6c0.8-1.1,0.7-2.5,0-3.5c-6.9-9.4-41-50.6-51.7-65.8
		c-19.2,27.8-34.3,58.6-40,70.9c-0.1-0.1-0.1-0.1-0.1-0.2l33.2-79.8c-4-5-8.3-9.8-13.1-14.1c-16.9-15.6-39.4-23.2-64.5-28.4
		c-2.4,34.2-5.1,63.9-5.8,70.5c0,0-0.1-0.1-0.1-0.1c0-0.4,0.1-0.9,0.1-1.5c0.8-10.3-3.2-38.7-8.8-71.6
		c-36.8-6.3-71.8,18.6-108.6,2.3c-2.1,5.5-1.5,13.7,1.1,23.7c0,0-0.1,0-0.1,0c12.4,40.5,7.1,57.6,10.6,99.3
		c27.4,6.4,50.9,11,61.7,11.2c0.1,0.1,0.2,0.3,0.3,0.4C315.7,350.5,292.2,352.6,265.2,354.6z"/>
	<path fill="#006838" stroke="#000000" stroke-width="2" stroke-miterlimit="10" d="M221.9,423.8c7,26.6,16,50.4,31.3,67.1
		c4.3,4.8,8.9,8.9,13.7,12.7l63.4-46.6c0,0,0.1,0.1,0.1,0.1c-9,7.3-33.3,27.7-54.9,53c14.2,9.9,66,22.5,74.6,28.8
		c1.2,0.9,3,0.7,3.9-0.5c9.3-12.3,16.2-26.4,24.2-39.6c1.7-2.7,5.9-1,5.1,2.1c-2.3,10-4.7,20.1-8.8,30.2c-0.8,1.9,0.7,4,2.8,3.9
		c18.6-1,34.5,4.3,47.6,11.9c1.6,0.9,3.6,0.1,4.1-1.7c3.6-12.2,3.8-16.1,9.1-27.2c1.2-2.4,4.8-2,5.3,0.7c1.9,10.1,1.6,18.3,7.1,26.2
		c5.6,7.9,33.2-1.9,46.5-6.8c1.8-0.7,2.4-2.9,1.2-4.4c-1.5-1.8-3.3-3.6-5.1-5.5c-0.5-0.5-0.8-1.2-0.9-1.9c-0.5-17.7-2-45.2-9.2-48.7
		c-8.3-4-14.9-1.1-24-0.3c-2.4,0.2-4-2.6-2.5-4.5c8.1-10.4,11-11.5,20.3-19.6c1.2-1,1.3-2.8,0.3-4c-10.3-12.4-19.7-28.6-24.6-49.5
		c-0.5-2.2-3.2-2.9-4.8-1.3c-6.7,6.8-13.9,12-21.1,17.1c-2.6,1.8-5.7-1.3-4-3.9c8.6-13,18.5-24.7,25.8-38.6c0.6-1.1,0.4-2.4-0.5-3.3
		c-7.7-7.8-45.1-41.5-57.2-54.1c-14.1,28.5-23.9,59.3-27.5,71.5c-0.1,0-0.1-0.1-0.2-0.1l20-78.8c-4.4-4.1-9.1-8-14.1-11.4
		c-17.9-12.2-39.8-16.2-63.9-17.6c2.4,32.2,4,60.1,4.3,66.4c0,0-0.1-0.1-0.1-0.1c0-0.4-0.1-0.8-0.1-1.4c-0.7-9.7-8.3-35.5-17.9-65.5
		c-35.1-0.8-64.3,27.1-100.7,17c-1.2,5.4,0.5,13,4.3,21.9c0,0-0.1,0-0.1,0.1c17.1,36,14.5,52.7,23.5,91c26.3,2.2,48.9,3.3,58.9,2
		c0.1,0.1,0.2,0.2,0.3,0.3C268.4,413,246.8,418.2,221.9,423.8z"/>
	<g id="Layer_4">
	</g>
</g>
<g id="leaves_left">
	<path fill="#009444" stroke="#000000" stroke-width="2" stroke-miterlimit="10" d="M263,216.9c-4.1,36.5-11.3,69.7-28.3,94.8
		c-4.7,7.1-10.1,13.5-15.6,19.5l-92.8-49.3c-0.1,0.1-0.1,0.1-0.2,0.2c13.4,7.9,49.4,30.1,82.9,59.4c-16.9,15.9-82.9,42.6-93,52.5
		c-1.5,1.4-3.8,1.5-5.2,0c-14.6-14.4-26.5-31.7-39.6-47.6c-2.7-3.3-8-0.2-6.4,3.8c5,12.7,10.2,25.7,17.5,38.2
		c1.4,2.4-0.2,5.4-2.9,5.6c-24.8,2.3-44.8,12.4-60.6,25c-1.9,1.5-4.7,0.8-5.7-1.4C5.9,402,4.8,396.9-4.4,383.4c-2-3-6.7-1.7-6.9,1.9
		c-0.5,13.7,1.5,24.5-4.3,36c-5.9,11.5-44.2,4-62.8,0.1c-2.5-0.5-3.8-3.4-2.4-5.6c1.7-2.7,3.6-5.4,5.7-8.2c0.6-0.8,0.9-1.7,0.8-2.7
		c-2.8-23.5-6.1-60.1,2.7-66.2c10.2-7,19.5-4.3,31.7-5.1c3.3-0.2,4.7-4.2,2.4-6.5c-12.7-12.2-16.8-13.1-30.7-21.9
		c-1.7-1.1-2.3-3.4-1.2-5.2c11.2-18.4,20.5-41.6,23-70.2c0.3-3,3.7-4.5,6-2.7c10.1,7.7,20.7,13.1,31.2,18.5c3.7,1.9,7.3-2.8,4.5-5.9
		c-13.9-15.5-29.2-29.1-41.5-46c-1-1.3-0.9-3.1,0-4.4c8.7-11.8,51.6-63.6,65-82.7c24.2,34.9,43.1,73.7,50.2,89.2
		c0.1-0.1,0.1-0.1,0.2-0.2L27.4,95.3c5-6.2,10.4-12.3,16.5-17.8c21.2-19.6,49.5-29.2,81-35.6c3.1,43,6.4,80.3,7.3,88.7
		c0.1-0.1,0.1-0.1,0.1-0.1c0-0.5-0.1-1.1-0.1-1.9c-1-12.9,4-48.6,11-90c46.2-7.9,90.3,23.3,136.5,2.9c2.6,7,1.9,17.3-1.4,29.8
		c0,0,0.1,0.1,0.1,0.1C262.8,122,269.4,143.6,265,196c-34.4,8-64,13.9-77.5,14.1c-0.1,0.2-0.2,0.3-0.4,0.5
		C199.5,211.8,229.1,214.5,263,216.9z"/>
	<path fill="#084829" stroke="#000000" stroke-width="2" stroke-miterlimit="10" d="M223.3,354.6c-3.3,29.1-9,55.4-22.5,75.4
		c-3.8,5.7-8,10.7-12.4,15.5l-73.9-39.2c0,0-0.1,0.1-0.1,0.1c10.6,6.3,39.3,24,66,47.2c-13.5,12.6-65.9,33.9-74,41.8
		c-1.2,1.1-3,1.2-4.2,0c-11.6-11.5-21.1-25.3-31.5-37.9c-2.2-2.6-6.3-0.2-5.1,3c4,10.1,8.1,20.4,14,30.4c1.1,1.9-0.1,4.3-2.3,4.5
		c-19.7,1.8-35.6,9.9-48.2,19.9c-1.5,1.2-3.8,0.6-4.6-1.1c-5.6-12.3-6.5-16.4-13.8-27.1c-1.6-2.4-5.4-1.3-5.5,1.5
		c-0.4,10.9,1.2,19.5-3.5,28.6c-4.7,9.2-35.2,3.2-50,0.1c-2-0.4-3-2.7-1.9-4.5c1.3-2.1,2.9-4.3,4.6-6.5c0.5-0.6,0.7-1.4,0.6-2.2
		c-2.3-18.7-4.9-47.8,2.2-52.7c8.1-5.5,15.5-3.4,25.2-4c2.6-0.2,3.8-3.4,1.9-5.2c-10.1-9.7-13.3-10.4-24.4-17.4
		c-1.4-0.9-1.8-2.7-0.9-4.1c8.9-14.7,16.3-33.1,18.3-55.9c0.2-2.4,2.9-3.6,4.8-2.1c8.1,6.1,16.5,10.4,24.8,14.7
		c3,1.5,5.8-2.2,3.6-4.7c-11.1-12.3-23.2-23.1-33.1-36.6c-0.8-1.1-0.7-2.5,0-3.5c6.9-9.4,41-50.6,51.7-65.8
		c19.2,27.8,34.3,58.6,40,70.9c0.1-0.1,0.1-0.1,0.1-0.2l-33.2-79.8c4-5,8.3-9.8,13.1-14.1c16.9-15.6,39.4-23.2,64.5-28.4
		c2.4,34.2,5.1,63.9,5.8,70.5c0,0,0.1-0.1,0.1-0.1c0-0.4-0.1-0.9-0.1-1.5c-0.8-10.3,3.2-38.7,8.8-71.6c36.8-6.3,71.8,18.6,108.6,2.3
		c2.1,5.5,1.5,13.7-1.1,23.7c0,0,0.1,0,0.1,0c-12.4,40.5-7.1,57.6-10.6,99.3c-27.4,6.4-50.9,11-61.7,11.2c-0.1,0.1-0.2,0.3-0.3,0.4
		C172.9,350.5,196.4,352.6,223.3,354.6z"/>
	<path fill="#006838" stroke="#000000" stroke-width="2" stroke-miterlimit="10" d="M266.6,423.8c-7,26.6-16,50.4-31.3,67.1
		c-4.3,4.8-8.9,8.9-13.7,12.7L158.3,457c-0.1,0-0.1,0.1-0.1,0.1c9,7.3,33.3,27.7,54.9,53c-14.2,9.9-66,22.5-74.6,28.8
		c-1.2,0.9-3,0.7-3.9-0.5c-9.3-12.3-16.2-26.4-24.2-39.6c-1.7-2.7-5.9-1-5.1,2.1c2.3,10,4.7,20.1,8.8,30.2c0.8,1.9-0.7,4-2.8,3.9
		c-18.6-1-34.5,4.3-47.6,11.9c-1.6,0.9-3.6,0.1-4.1-1.7c-3.6-12.2-3.8-16.1-9.1-27.2c-1.2-2.4-4.8-2-5.3,0.7
		c-1.9,10.1-1.6,18.3-7.1,26.2c-5.6,7.9-33.2-1.9-46.5-6.8c-1.8-0.7-2.4-2.9-1.2-4.4c1.5-1.8,3.3-3.6,5.1-5.5
		c0.5-0.5,0.8-1.2,0.9-1.9c0.5-17.7,2-45.2,9.2-48.7c8.3-4,14.9-1.1,24-0.3c2.4,0.2,4-2.6,2.5-4.5c-8.1-10.4-11-11.5-20.3-19.6
		c-1.2-1-1.3-2.8-0.3-4c10.3-12.4,19.7-28.6,24.6-49.5c0.5-2.2,3.2-2.9,4.8-1.3c6.7,6.8,13.9,12,21.1,17.1c2.6,1.8,5.7-1.3,4-3.9
		c-8.6-13-18.5-24.7-25.8-38.6c-0.6-1.1-0.4-2.4,0.5-3.3c7.7-7.8,45.1-41.5,57.2-54.1c14.1,28.5,23.9,59.3,27.5,71.5
		c0.1,0,0.1-0.1,0.2-0.1l-20-78.8c4.4-4.1,9.1-8,14.1-11.4c17.9-12.2,39.8-16.2,63.9-17.6c-2.4,32.2-4,60.1-4.3,66.4
		c0,0,0.1-0.1,0.1-0.1c0-0.4,0.1-0.8,0.1-1.4c0.7-9.7,8.3-35.5,17.9-65.5c35.1-0.8,64.3,27.1,100.7,17c1.2,5.4-0.5,13-4.3,21.9
		c0,0,0.1,0,0.1,0.1c-17.1,36-14.5,52.7-23.5,91c-26.3,2.2-48.9,3.3-58.9,2c-0.1,0.1-0.2,0.2-0.3,0.3
		C220.2,413,241.8,418.2,266.6,423.8z"/>
</g>
<g id="eyes">
	<g>
		<path fill="#353517" d="M300.4,304.5c0.6,5.7-1.6,9.4-1.6,9.4c-1.4-2.7-1.7-5.5-1.6-8c-4.7,2.2-9.4,5.6-13.1,10.6
			c0,0,27.1,16.1,32.1-15C316.2,301.4,308.8,301.3,300.4,304.5z"/>
		<path d="M301.5,305.2c0,0.1,0,0.3,0,0.4c0,0.4,0,0.9,0,1.3c0,0.8-0.1,1.7-0.2,2.5c-0.1,0.8-0.3,1.7-0.6,2.5
			c-0.1,0.4-0.3,0.8-0.4,1.2c-0.1,0.2-0.2,0.4-0.3,0.6c-0.1,0.2-0.2,0.4-0.3,0.6l-0.9,1.6l-0.8-1.7c-1.3-2.6-1.9-5.6-1.7-8.5
			l1.4,0.9c-2.5,1.2-4.9,2.6-7,4.3c-2.2,1.7-4.1,3.7-5.7,5.9l0,0l-0.3-1.5c0.7,0.5,1.5,0.9,2.3,1.4c0.8,0.4,1.6,0.8,2.4,1.2
			c0.8,0.4,1.7,0.7,2.5,0.9c0.9,0.3,1.7,0.5,2.6,0.7c0.9,0.2,1.8,0.3,2.7,0.4c0.9,0.1,1.8,0.1,2.7,0c0.4,0,0.9-0.1,1.3-0.1
			c0.4-0.1,0.9-0.1,1.3-0.2l1.3-0.4l1.2-0.5l1.2-0.6c0.4-0.2,0.7-0.5,1.1-0.7c0.7-0.5,1.4-1.1,2-1.7c0.6-0.6,1.2-1.3,1.7-2
			c0.5-0.8,1-1.5,1.3-2.3c0.4-0.8,0.7-1.6,1.1-2.4c0.3-0.8,0.5-1.7,0.8-2.6l0.6-2.6l0.4-2.7l0,0l1,1.2c-0.6,0-1.3,0-1.9,0.1
			c-0.7,0-1.3,0.1-2,0.2c-1.3,0.2-2.6,0.3-3.9,0.6C306,303.7,303.7,304.4,301.5,305.2z M300.1,303.6c2.6-1,5.2-1.7,7.9-2.2
			c1.3-0.3,2.7-0.5,4.1-0.6c0.7-0.1,1.4-0.1,2.1-0.2c0.7,0,1.4-0.1,2.1-0.1l1.3,0l-0.3,1.2l0,0l-0.7,2.7l-0.8,2.7
			c-0.4,0.9-0.6,1.8-1,2.6c-0.4,0.9-0.8,1.7-1.2,2.5c-0.4,0.8-1,1.6-1.5,2.4c-0.3,0.4-0.6,0.7-0.9,1.1c-0.3,0.4-0.6,0.7-1,1
			c-0.7,0.7-1.4,1.2-2.2,1.8c-0.4,0.2-0.8,0.5-1.2,0.7l-1.3,0.6l-1.3,0.5l-1.4,0.4c-0.9,0.2-1.9,0.3-2.8,0.4c-1.9,0.1-3.7,0-5.6-0.3
			c-0.9-0.2-1.8-0.3-2.7-0.6c-0.9-0.2-1.8-0.5-2.7-0.8c-0.9-0.3-1.8-0.6-2.6-0.9c-0.9-0.3-1.7-0.7-2.6-1.1l-1-0.5l0.7-1l0,0
			c1.7-2.3,3.8-4.5,6.1-6.3c2.3-1.8,4.8-3.3,7.4-4.6l1.5-0.7l-0.1,1.7c-0.1,2.6,0.4,5.2,1.5,7.5l-1.7-0.1c0.1-0.1,0.2-0.3,0.2-0.4
			c0.1-0.2,0.1-0.3,0.2-0.5c0.1-0.3,0.3-0.7,0.4-1.1c0.2-0.7,0.4-1.5,0.5-2.2c0.1-0.7,0.2-1.5,0.2-2.3c0-0.4,0-0.7,0-1.1
			c0-0.2,0-0.4,0-0.6l-0.1-1.4L300.1,303.6z"/>
	</g>
	<g>
		<defs>
			<path id="SVGID_1_" d="M314.9,302.4c0,0-19.2,0.3-29.3,13.8C285.7,316.2,310.5,330,314.9,302.4z"/>
		</defs>
		<clipPath id="SVGID_2_">
			<use xlink:href="#SVGID_1_"  overflow="visible"/>
		</clipPath>
		<path clip-path="url(#SVGID_2_)" fill="#CCCB31" stroke="#000000" stroke-width="2" stroke-miterlimit="10" d="M300.1,302.3
			c1.5,7-1.2,11.5-1.2,11.5c-2.1-4.1-1.8-8.3-1.2-11.3c-4.4,0.9-7.7,4.7-7.7,9.2c0,5.2,4.4,10.3,9.9,10.3s9.9-5.1,9.9-10.3
			C309.7,306.6,305.4,302.4,300.1,302.3z"/>
	</g>
	<g>
		<defs>
			<path id="SVGID_3_" d="M316.2,301.4c0,0-20.8-0.2-32.1,15C284.1,316.4,311.2,332.5,316.2,301.4z"/>
		</defs>
		<clipPath id="SVGID_4_">
			<use xlink:href="#SVGID_3_"  overflow="visible"/>
		</clipPath>
	</g>
	<g>
		<path fill="#353517" d="M196.9,304.5c-0.6,5.7,1.6,9.4,1.6,9.4c1.4-2.7,1.7-5.5,1.6-8c4.7,2.2,9.4,5.6,13.1,10.6
			c0,0-27.1,16.1-32.1-15C181.1,301.4,188.5,301.3,196.9,304.5z"/>
		<path d="M197.9,303.8l-0.1,1.4c0,0.2,0,0.4,0,0.6c0,0.4,0,0.7,0,1.1c0,0.8,0.1,1.5,0.2,2.3c0.1,0.7,0.3,1.5,0.5,2.2
			c0.1,0.4,0.2,0.7,0.4,1.1c0.1,0.2,0.1,0.3,0.2,0.5c0.1,0.2,0.2,0.3,0.2,0.4l-1.7,0.1c1.2-2.3,1.6-4.9,1.5-7.5l-0.1-1.7l1.5,0.7
			c2.6,1.2,5.1,2.8,7.4,4.6c2.3,1.8,4.3,3.9,6.1,6.3l0,0l0.7,1l-1,0.5c-0.9,0.4-1.7,0.8-2.6,1.1c-0.9,0.3-1.8,0.6-2.6,0.9
			c-0.9,0.3-1.8,0.5-2.7,0.8c-0.9,0.2-1.8,0.4-2.7,0.5c-1.8,0.3-3.7,0.4-5.6,0.3c-0.5,0-0.9-0.1-1.4-0.1c-0.5-0.1-0.9-0.2-1.4-0.3
			l-1.4-0.4l-1.3-0.5l-1.3-0.6c-0.4-0.2-0.8-0.5-1.2-0.7c-0.8-0.5-1.5-1.1-2.2-1.8c-0.7-0.6-1.3-1.4-1.9-2.1
			c-0.5-0.8-1.1-1.5-1.5-2.4c-0.5-0.8-0.9-1.7-1.3-2.5c-0.4-0.9-0.7-1.7-1-2.6l-0.8-2.7c-0.2-0.9-0.4-1.8-0.7-2.7l0,0l-0.3-1.2
			l1.3,0c0.7,0,1.4,0,2.1,0.1c0.7,0.1,1.4,0.1,2.1,0.2c1.4,0.2,2.7,0.4,4.1,0.6c2.7,0.5,5.3,1.3,7.9,2.2L197.9,303.8z M195.8,305.2
			c-2.2-0.8-4.5-1.5-6.9-1.9c-1.3-0.3-2.6-0.5-3.9-0.6c-0.7-0.1-1.3-0.1-2-0.2c-0.6,0-1.3-0.1-1.9-0.1l1-1.2l0,0
			c0.1,0.9,0.2,1.8,0.4,2.7l0.6,2.6c0.3,0.9,0.5,1.7,0.8,2.6c0.3,0.8,0.6,1.7,1.1,2.5c0.4,0.8,0.9,1.6,1.3,2.3
			c0.2,0.4,0.5,0.7,0.8,1.1c0.3,0.4,0.6,0.7,0.9,1c0.6,0.7,1.3,1.2,2,1.7c0.4,0.2,0.7,0.5,1.1,0.7l1.2,0.6l1.3,0.5l1.3,0.4
			c0.4,0.1,0.9,0.2,1.3,0.2c0.4,0.1,0.9,0.1,1.3,0.1c0.9,0,1.8,0,2.7-0.1c0.9-0.1,1.8-0.2,2.7-0.4c0.9-0.2,1.7-0.4,2.6-0.7
			c0.9-0.3,1.7-0.6,2.5-0.9c0.8-0.3,1.6-0.8,2.4-1.2c0.8-0.4,1.6-0.9,2.3-1.4l-0.3,1.5l0,0c-1.6-2.2-3.6-4.2-5.7-5.9
			c-2.2-1.7-4.5-3.2-7-4.3l1.4-0.9c0.1,2.9-0.4,5.8-1.7,8.5l-0.8,1.7l-0.9-1.6c-0.1-0.2-0.2-0.4-0.3-0.6c-0.1-0.2-0.2-0.4-0.3-0.6
			c-0.2-0.4-0.3-0.8-0.4-1.2c-0.3-0.8-0.4-1.6-0.6-2.5c-0.1-0.8-0.2-1.7-0.2-2.5c0-0.4,0-0.9,0-1.3
			C195.8,305.5,195.8,305.3,195.8,305.2z"/>
	</g>
	<g>
		<defs>
			<path id="SVGID_5_" d="M182.4,302.4c0,0,19.2,0.3,29.3,13.8C211.6,316.2,186.8,330,182.4,302.4z"/>
		</defs>
		<clipPath id="SVGID_6_">
			<use xlink:href="#SVGID_5_"  overflow="visible"/>
		</clipPath>
		<path clip-path="url(#SVGID_6_)" fill="#CCCB31" stroke="#000000" stroke-width="2" stroke-miterlimit="10" d="M197.2,302.3
			c-1.5,7,1.2,11.5,1.2,11.5c2.1-4.1,1.8-8.3,1.2-11.3c4.4,0.9,7.7,4.7,7.7,9.2c0,5.2-4.4,10.3-9.9,10.3c-5.4,0-9.9-5.1-9.9-10.3
			C187.7,306.6,191.9,302.4,197.2,302.3z"/>
	</g>
	<g>
		<defs>
			<path id="SVGID_7_" d="M181.1,301.4c0,0,20.8-0.2,32.1,15C213.2,316.4,186.1,332.5,181.1,301.4z"/>
		</defs>
		<clipPath id="SVGID_8_">
			<use xlink:href="#SVGID_7_"  overflow="visible"/>
		</clipPath>
	</g>
	<path fill="none" stroke="#009444" stroke-width="1.5" stroke-miterlimit="10" d="M378,284.6"/>
	<path fill="none" stroke="#009444" stroke-width="1.5" stroke-miterlimit="10" d="M110.1,284.6"/>
</g>
</svg>